<?xml version="1.0" standalone="no"?>
<!DOCTYPE svg PUBLIC "-//W3C//DTD SVG 1.1//EN" "http://www.w3.org/Graphics/SVG/1.1/DTD/svg11.dtd" >
<svg xmlns="http://www.w3.org/2000/svg" xmlns:xlink="http://www.w3.org/1999/xlink" version="1.1">
<metadata>
Created by FontForge 20170731 at Wed Dec 14 13:36:48 2011
 By Aleksey,,,
Generated in 2011 by FontLab Studio. Copyright info pending.
</metadata>
<defs>
<font id="Luset-Regular" horiz-adv-x="520" >
  <font-face 
    font-family=$font-family-luset
    font-weight="400"
    font-stretch="normal"
    units-per-em="1000"
    panose-1="2 0 5 3 6 0 0 2 0 4"
    ascent="750"
    descent="-250"
    x-height="482"
    cap-height="675"
    bbox="-436 -249 1166 911"
    underline-thickness="50"
    underline-position="-200"
    unicode-range="U+000D-FB04"
  />
<missing-glyph horiz-adv-x="500" 
d="M324 675q72 0 93 -27t21 -108v-405q0 -81 -21 -108t-93 -27h-148q-72 0 -93 27t-21 108v405q0 81 21 108t93 27h148zM351 122v431q0 45 -6 58l-72 -272l73 -274q5 14 5 57zM149 122q0 -45 4 -56l73 273l-73 270q-4 -11 -4 -56v-431zM195 48h109l-55 202zM303 627h-108
l54 -201z" />
    <glyph glyph-name="f_f" unicode="ff" horiz-adv-x="544" 
d="M242 742q39 0 67.5 -20t28.5 -43q0 -25 -23 -25q-10 0 -30 19.5t-40 19.5q-51 0 -51 -85v-126h145v84q0 92 48.5 134t116.5 42q47 0 81.5 -20t34.5 -43q0 -25 -23 -25q-12 0 -38 19.5t-52 19.5q-51 0 -51 -85v-126h68q20 0 18 -18q-3 -21 -25 -27q-5 -2 -11 -2h-50
q0 -27 -0.5 -79t-1.5 -158t-2 -228q0 -24 -22 -27l-51 -8q-7 -1 -11 5t-5 15q-6 80 -12 200t-9 200l-3 80h-145q0 -27 -0.5 -79t-1.5 -158t-2 -228q0 -24 -22 -27l-51 -8q-7 -1 -11 5t-5 15q-6 80 -12 200t-9 200l-3 80h-44q-23 0 -18 19.5t25 26.5q4 1 8 1h29v84
q0 92 48.5 134t116.5 42z" />
    <glyph glyph-name="fi" unicode="fi" horiz-adv-x="529" 
d="M469 -11q-69 0 -103 40t-34 104v302h-138q0 -175 -4 -465q0 -10 -6 -18t-16 -9l-51 -8q-7 -1 -11 5t-5 15q-6 80 -12 200t-9 200l-3 80h-44q-19 0 -19 14q0 11 10.5 22t23.5 11h29v63q0 98 54.5 147.5t128.5 49.5q47 0 85.5 -20t53.5 -55q7 -18 1.5 -29.5t-16 -10.5
t-19.5 11q-39 48 -90 48q-37 0 -59 -24.5t-22 -67.5v-112h234q21 0 21 -21v-322q0 -96 65 -96q40 0 78 55q7 10 16 12t15 -2t6 -11q0 -37 -48 -72.5t-112 -35.5z" />
    <glyph glyph-name="fl" unicode="fl" horiz-adv-x="533" 
d="M264 435h-70q0 -175 -4 -465q0 -10 -6 -18t-16 -9l-51 -8q-7 -1 -11 5t-5 15q-6 80 -12 200t-9 200l-3 80h-44q-19 0 -19 14q0 11 10.5 22t23.5 11h29v63q0 98 54.5 147.5t128.5 49.5q57 0 99 -28l63 17q10 2 12 2q19 0 19 -20v-574q0 -96 65 -96q40 0 78 55q10 13 22 13
q15 0 15 -14q0 -37 -48 -72.5t-112 -35.5q-70 0 -105.5 40t-35.5 104q0 285 15 524q-32 29 -72 29q-37 0 -59 -24.5t-22 -67.5v-112h88q18 0 18 -16q0 -11 -10 -21t-26 -10z" />
    <glyph glyph-name="f_f_i" unicode="ffi" horiz-adv-x="791" 
d="M731 -11q-69 0 -103 40t-34 104v302h-138q0 -175 -4 -465q0 -10 -6 -18t-16 -9l-51 -8q-7 -1 -11 5t-5 15q-6 80 -12 200t-9 200l-3 80h-145q0 -27 -0.5 -79t-1.5 -158t-2 -228q0 -24 -22 -27l-51 -8q-7 -1 -11 5t-5 15q-6 80 -12 200t-9 200l-3 80h-44q-23 0 -18 19.5
t25 26.5q4 1 8 1h29v84q0 92 48.5 134t116.5 42q43 0 74.5 -20t31.5 -43q0 -25 -23 -25q-11 0 -34 19.5t-46 19.5q-51 0 -51 -85v-126h145v63q0 98 54.5 147.5t128.5 49.5q47 0 85.5 -20t53.5 -55q7 -18 1.5 -29.5t-16 -10.5t-19.5 11q-39 48 -90 48q-37 0 -59 -24.5
t-22 -67.5v-112h234q21 0 21 -21v-322q0 -96 65 -96q40 0 78 55q7 10 16 12t15 -2t6 -11q0 -37 -48 -72.5t-112 -35.5z" />
    <glyph glyph-name="f_f_l" unicode="ffl" horiz-adv-x="795" 
d="M526 435h-70q0 -175 -4 -465q0 -10 -6 -18t-16 -9l-51 -8q-7 -1 -11 5t-5 15q-6 80 -12 200t-9 200l-3 80h-145q0 -27 -0.5 -79t-1.5 -158t-2 -228q0 -24 -22 -27l-51 -8q-7 -1 -11 5t-5 15q-6 80 -12 200t-9 200l-3 80h-44q-23 0 -18 19.5t25 26.5q4 1 8 1h29v84
q0 92 48.5 134t116.5 42q43 0 74.5 -20t31.5 -43q0 -25 -23 -25q-11 0 -34 19.5t-46 19.5q-51 0 -51 -85v-126h145v63q0 98 54.5 147.5t128.5 49.5q57 0 99 -28q72 19 75 19q19 0 19 -20v-574q0 -96 65 -96q40 0 78 55q10 13 22 13q15 0 15 -14q0 -37 -48 -72.5t-112 -35.5
q-70 0 -105.5 40t-35.5 104q0 285 15 524q-32 29 -72 29q-37 0 -59 -24.5t-22 -67.5v-112h88q20 0 18 -18q-3 -21 -25 -27q-5 -2 -11 -2z" />
    <glyph glyph-name="f_b" unicode="fb" horiz-adv-x="811" 
d="M333 228v439q-28 19 -58 19q-37 0 -59 -24.5t-22 -67.5v-112h68q20 0 18 -18q-3 -21 -25 -27q-5 -2 -11 -2h-50q0 -27 -0.5 -79t-1.5 -158t-2 -228q0 -24 -22 -27l-51 -8q-7 -1 -11 5t-5 15q-6 80 -12 200t-9 200l-3 80h-44q-23 0 -18 19.5t25 26.5q4 1 8 1h29v63
q0 98 54.5 147.5t128.5 49.5q54 0 96 -28q72 19 75 19q19 0 19 -20v-271q55 51 128 51q90 0 139.5 -70t49.5 -171q0 -119 -63.5 -191t-170.5 -72q-117 0 -158.5 58t-41.5 181zM646 244q0 93 -26 144t-75 51q-54 0 -95 -41v-228q0 -27 3 -47t11 -42t27.5 -33.5t48.5 -11.5
q41 0 66 35t32.5 77.5t7.5 95.5z" />
    <glyph glyph-name="f_f_b" unicode="ffb" horiz-adv-x="1073" 
d="M595 228v439q-28 19 -58 19q-37 0 -59 -24.5t-22 -67.5v-112h68q20 0 18 -18q-3 -21 -25 -27q-5 -2 -11 -2h-50q0 -27 -0.5 -79t-1.5 -158t-2 -228q0 -24 -22 -27l-51 -8q-7 -1 -11 5t-5 15q-6 80 -12 200t-9 200l-3 80h-145q0 -27 -0.5 -79t-1.5 -158t-2 -228
q0 -24 -22 -27l-51 -8q-7 -1 -11 5t-5 15q-6 80 -12 200t-9 200l-3 80h-44q-23 0 -18 19.5t25 26.5q4 1 8 1h29v84q0 92 48.5 134t116.5 42q39 0 67.5 -20t28.5 -43q0 -25 -23 -25q-10 0 -30 19.5t-40 19.5q-51 0 -51 -85v-126h145v63q0 98 54.5 147.5t128.5 49.5
q54 0 96 -28q72 19 75 19q19 0 19 -20v-271q55 51 128 51q90 0 139.5 -70t49.5 -171q0 -119 -63.5 -191t-170.5 -72q-117 0 -158.5 58t-41.5 181zM908 244q0 93 -26 144t-75 51q-54 0 -95 -41v-228q0 -27 3 -47t11 -42t27.5 -33.5t48.5 -11.5q41 0 66 35t32.5 77.5t7.5 95.5
z" />
    <glyph glyph-name="f_h" unicode="fh" horiz-adv-x="804" 
d="M333 21v646q-28 19 -58 19q-37 0 -59 -24.5t-22 -67.5v-112h68q20 0 18 -18q-3 -21 -25 -27q-5 -2 -11 -2h-50q0 -27 -0.5 -79t-1.5 -158t-2 -228q0 -24 -22 -27l-51 -8q-7 -1 -11 5t-5 15q-6 80 -12 200t-9 200l-3 80h-44q-23 0 -18 19.5t25 26.5q4 1 8 1h29v63
q0 98 54.5 147.5t128.5 49.5q54 0 96 -28q72 19 75 19q19 0 19 -20v-272q67 52 133 52q141 0 141 -162v-192q0 -96 65 -96q40 0 78 55q7 10 16 12t15 -2t6 -11q0 -37 -48 -72.5t-112 -35.5q-69 0 -103 40t-34 104v215q0 92 -65 92q-39 0 -92 -46v-373q0 -21 -21 -21h-75
q-21 0 -21 21z" />
    <glyph glyph-name="f_f_h" unicode="ffh" horiz-adv-x="1066" 
d="M712 713v-272q67 52 133 52q141 0 141 -162v-192q0 -96 65 -96q40 0 78 55q7 10 16 12t15 -2t6 -11q0 -37 -48 -72.5t-112 -35.5q-69 0 -103 40t-34 104v215q0 92 -65 92q-39 0 -92 -46v-373q0 -21 -21 -21h-75q-21 0 -21 21v646q-28 19 -58 19q-37 0 -59 -24.5
t-22 -67.5v-112h68q20 0 18 -18q-3 -21 -25 -27q-5 -2 -11 -2h-50q0 -27 -0.5 -79t-1.5 -158t-2 -228q0 -24 -22 -27l-51 -8q-7 -1 -11 5t-5 15q-6 80 -12 200t-9 200l-3 80h-145q0 -27 -0.5 -79t-1.5 -158t-2 -228q0 -24 -22 -27l-51 -8q-7 -1 -11 5t-5 15q-6 80 -12 200
t-9 200l-3 80h-44q-23 0 -18 19.5t25 26.5q4 1 8 1h29v84q0 92 48.5 134t116.5 42q39 0 67.5 -20t28.5 -43q0 -25 -23 -25q-10 0 -30 19.5t-40 19.5q-51 0 -51 -85v-126h145v63q0 98 54.5 147.5t128.5 49.5q54 0 96 -28q72 19 75 19q19 0 19 -20z" />
    <glyph glyph-name="f_j" unicode="fj" horiz-adv-x="516" 
d="M332 47v388h-138q0 -175 -4 -465q0 -10 -6 -18t-16 -9l-51 -8q-7 -1 -11 5t-5 15q-6 80 -12 200t-9 200l-3 80h-44q-19 0 -19 14q0 11 10.5 22t23.5 11h29v63q0 98 54.5 147.5t128.5 49.5q47 0 85.5 -20t53.5 -55q7 -18 1.5 -29.5t-16 -10.5t-19.5 11q-39 48 -90 48
q-37 0 -59 -24.5t-22 -67.5v-112h234q21 0 21 -21v-286q0 -49 -4.5 -97t-16 -107t-37.5 -108t-64 -76q-34 -25 -81 -25q-15 0 -24 6t-9 14q0 16 28 22q26 6 44 26t27 42t14 58.5t5.5 58.5t0.5 58z" />
    <glyph glyph-name="f_f_j" unicode="ffj" horiz-adv-x="778" 
d="M594 435h-138q0 -175 -4 -465q0 -10 -6 -18t-16 -9l-51 -8q-7 -1 -11 5t-5 15q-6 80 -12 200t-9 200l-3 80h-145q0 -27 -0.5 -79t-1.5 -158t-2 -228q0 -24 -22 -27l-51 -8q-7 -1 -11 5t-5 15q-6 80 -12 200t-9 200l-3 80h-44q-23 0 -18 19.5t25 26.5q4 1 8 1h29v84
q0 92 48.5 134t116.5 42q43 0 74.5 -20t31.5 -43q0 -25 -23 -25q-11 0 -34 19.5t-46 19.5q-51 0 -51 -85v-126h145v63q0 98 54.5 147.5t128.5 49.5q47 0 85.5 -20t53.5 -55q7 -18 1.5 -29.5t-16 -10.5t-19.5 11q-39 48 -90 48q-37 0 -59 -24.5t-22 -67.5v-112h234
q21 0 21 -21v-286q0 -49 -4.5 -97t-16 -107t-37.5 -108t-64 -76q-34 -25 -81 -25q-15 0 -24 6t-9 14q0 16 28 22q26 6 44 26t27 42t14 58.5t5.5 58.5t0.5 58v388z" />
    <glyph glyph-name="f_k" unicode="fk" horiz-adv-x="736" 
d="M450 713v-424l184 177q17 16 30 16h32q18 0 18 -17q0 -7 -7 -14l-164 -149l153 -227q23 -34 61 -18q15 6 22 -11q7 -22 -17 -35q-38 -22 -79 -22q-40 0 -62.5 14t-47.5 53l-123 192v-227q0 -21 -21 -21h-75q-21 0 -21 21v646q-28 19 -58 19q-37 0 -59 -24.5t-22 -67.5
v-112h68q20 0 18 -18q-3 -21 -25 -27q-5 -2 -11 -2h-50q0 -27 -0.5 -79t-1.5 -158t-2 -228q0 -24 -22 -27l-51 -8q-7 -1 -11 5t-5 15q-6 80 -12 200t-9 200l-3 80h-44q-23 0 -18 19.5t25 26.5q4 1 8 1h29v63q0 98 54.5 147.5t128.5 49.5q54 0 96 -28q72 19 75 19
q19 0 19 -20z" />
    <glyph glyph-name="f_f_k" unicode="ffk" horiz-adv-x="998" 
d="M595 21v646q-28 19 -58 19q-37 0 -59 -24.5t-22 -67.5v-112h68q20 0 18 -18q-3 -21 -25 -27q-5 -2 -11 -2h-50q0 -27 -0.5 -79t-1.5 -158t-2 -228q0 -24 -22 -27l-51 -8q-7 -1 -11 5t-5 15q-6 80 -12 200t-9 200l-3 80h-145q0 -27 -0.5 -79t-1.5 -158t-2 -228
q0 -24 -22 -27l-51 -8q-7 -1 -11 5t-5 15q-6 80 -12 200t-9 200l-3 80h-44q-23 0 -18 19.5t25 26.5q4 1 8 1h29v84q0 92 48.5 134t116.5 42q39 0 67.5 -20t28.5 -43q0 -25 -23 -25q-10 0 -30 19.5t-40 19.5q-51 0 -51 -85v-126h145v63q0 98 54.5 147.5t128.5 49.5
q54 0 96 -28q72 19 75 19q19 0 19 -20v-424l184 177q17 16 30 16h32q18 0 18 -17q0 -7 -7 -14l-164 -149l153 -227q23 -34 61 -18q15 6 22 -11q7 -22 -17 -35q-38 -22 -79 -22q-40 0 -62.5 14t-47.5 53l-123 192v-227q0 -21 -21 -21h-75q-21 0 -21 21z" />
    <glyph glyph-name="f_idieresis" unicode="f&#xef;" horiz-adv-x="539" 
d="M244 435h-50q0 -27 -0.5 -79t-1.5 -158t-2 -228q0 -24 -22 -27l-51 -8q-7 -1 -11 5t-5 15q-6 80 -12 200t-9 200l-3 80h-44q-23 0 -18 19.5t25 26.5q4 1 8 1h29v84q0 92 48.5 134t116.5 42q59 0 99.5 -38.5t40.5 -86.5q0 -24 -15.5 -40t-39.5 -16t-39.5 15.5t-15.5 36.5
q0 26 23 42q-5 16 -19 27t-31 11q-51 0 -51 -85v-126h68q20 0 18 -18q-3 -21 -25 -27q-5 -2 -11 -2zM551 617q0 -24 -15.5 -40t-39.5 -16q-25 0 -40.5 16t-15.5 40t15.5 39.5t40.5 15.5q24 0 39.5 -15.5t15.5 -39.5zM479 -11q-69 0 -103 40t-34 104v328q0 21 21 21h75
q21 0 21 -21v-322q0 -96 65 -96q40 0 78 55q7 10 16 12t15 -2t6 -11q0 -37 -48 -72.5t-112 -35.5z" />
    <glyph glyph-name="f_t" unicode="ft" horiz-adv-x="559" 
d="M342 435h-148q0 -27 -0.5 -79t-1.5 -158t-2 -228q0 -24 -22 -27l-51 -8q-7 -1 -11 5t-5 15q-6 80 -12 200t-9 200l-3 80h-44q-23 0 -18 19.5t25 26.5q4 1 8 1h29v84q0 92 48.5 134t116.5 42q47 0 81.5 -20t34.5 -43q0 -25 -23 -25q-12 0 -38 19.5t-52 19.5q-51 0 -51 -85
v-126h152l30 99q6 21 27 31.5t43 10.5q13 0 13 -18v-123h64q18 0 18 -16q0 -11 -10 -21t-26 -10h-46v-296q0 -96 65 -96q45 0 88 55q10 13 22 13q15 0 15 -14q0 -37 -50.5 -72.5t-119.5 -35.5t-103 40t-34 104v302z" />
    <glyph glyph-name="f_f_t" unicode="fft" horiz-adv-x="821" 
d="M604 435h-148q0 -27 -0.5 -79t-1.5 -158t-2 -228q0 -24 -22 -27l-51 -8q-7 -1 -11 5t-5 15q-6 80 -12 200t-9 200l-3 80h-145q0 -27 -0.5 -79t-1.5 -158t-2 -228q0 -24 -22 -27l-51 -8q-7 -1 -11 5t-5 15q-6 80 -12 200t-9 200l-3 80h-44q-23 0 -18 19.5t25 26.5q4 1 8 1
h29v84q0 92 48.5 134t116.5 42q39 0 67.5 -20t28.5 -43q0 -25 -23 -25q-10 0 -30 19.5t-40 19.5q-51 0 -51 -85v-126h145v84q0 92 48.5 134t116.5 42q47 0 81.5 -20t34.5 -43q0 -25 -23 -25q-12 0 -38 19.5t-52 19.5q-51 0 -51 -85v-126h152l30 99q6 21 27 31.5t43 10.5
q13 0 13 -18v-123h64q18 0 18 -16q0 -11 -10 -21t-26 -10h-46v-296q0 -96 65 -96q45 0 88 55q10 13 22 13q15 0 15 -14q0 -37 -50.5 -72.5t-119.5 -35.5t-103 40t-34 104v302z" />
    <glyph glyph-name=".notdef" horiz-adv-x="500" 
d="M324 675q72 0 93 -27t21 -108v-405q0 -81 -21 -108t-93 -27h-148q-72 0 -93 27t-21 108v405q0 81 21 108t93 27h148zM351 122v431q0 45 -6 58l-72 -272l73 -274q5 14 5 57zM149 122q0 -45 4 -56l73 273l-73 270q-4 -11 -4 -56v-431zM195 48h109l-55 202zM303 627h-108
l54 -201z" />
    <glyph glyph-name=".null" horiz-adv-x="0" 
 />
    <glyph glyph-name=".null" horiz-adv-x="0" 
 />
    <glyph glyph-name="nonmarkingreturn" horiz-adv-x="333" 
 />
    <glyph glyph-name="CR" unicode="&#xd;" horiz-adv-x="277" 
 />
    <glyph glyph-name="space" unicode=" " horiz-adv-x="277" 
 />
    <glyph glyph-name="exclam" unicode="!" horiz-adv-x="210" 
d="M105 -11q-27 0 -46.5 18.5t-19.5 44.5q0 27 19.5 45.5t46.5 18.5t46.5 -18.5t19.5 -45.5q0 -26 -19.5 -44.5t-46.5 -18.5zM113 180h-17q-23 0 -24 16q-3 42 -8.5 123.5t-12.5 184.5t-10 149q-2 22 21 22h85q23 0 21 -22q-3 -46 -10 -149t-12.5 -184.5t-8.5 -123.5
q-1 -16 -24 -16z" />
    <glyph glyph-name="quotedbl" unicode="&#x22;" horiz-adv-x="323" 
d="M94 485h-16q-17 0 -18 13l-19 196q-2 16 8 24t37 8t37 -8t8 -24l-19 -196q-1 -13 -18 -13zM245 485h-16q-17 0 -18 13l-19 196q-2 16 8 24t37 8t37 -8t8 -24l-19 -196q-1 -13 -18 -13z" />
    <glyph glyph-name="numbersign" unicode="#" 
d="M472 189q0 -16 -7 -22t-25 -6h-83l-17 -121q-3 -23 -10 -31.5t-24 -8.5t-22.5 9t-2.5 31l17 121h-109l-17 -121q-3 -23 -10 -31.5t-24 -8.5t-22.5 9t-2.5 31l17 121h-70q-18 0 -25 6t-7 22t7 22t25 6h78l16 113h-74q-18 0 -25 6t-7 22t7 22t25 6h82l17 123q3 22 10 31
t24 9q18 0 23 -9t2 -31l-17 -123h109l17 123q3 22 10 31t24 9q18 0 23 -9t2 -31l-17 -123h71q18 0 25 -6t7 -22t-7 -22t-25 -6h-79l-16 -113h75q18 0 25 -6t7 -22zM213 330l-16 -113h109l16 113h-109z" />
    <glyph glyph-name="dollar" unicode="$" 
d="M285 669v-43q58 -4 98.5 -35t40.5 -52q0 -13 -8.5 -21.5t-21.5 -8.5q-12 0 -27.5 16t-40 32t-57.5 16q-40 0 -60.5 -19.5t-20.5 -50.5t20.5 -57.5t51.5 -43.5t67 -40t67 -46t51.5 -62t20.5 -88q0 -65 -47.5 -115t-138.5 -60v-47q0 -28 -27 -28q-26 0 -26 28v45
q-54 3 -105 29t-66 68q-9 26 11.5 38.5t33.5 -2.5q29 -29 44.5 -42.5t40 -24.5t52.5 -11q50 0 81 27t31 75q0 34 -28.5 63.5t-69 53.5t-81 51t-69 66.5t-28.5 88.5q0 57 40 101.5t118 53.5v45q0 29 26 29q27 0 27 -29z" />
    <glyph glyph-name="percent" unicode="%" horiz-adv-x="765" 
d="M334 428q0 -91 -41.5 -144t-114.5 -53q-74 0 -114.5 52.5t-40.5 144.5t41 145.5t114 53.5t114.5 -54t41.5 -145zM244 429q0 152 -66 152q-35 0 -51 -43t-16 -109q0 -151 66 -151q35 0 51 43t16 108zM741 186q0 -91 -41.5 -144t-114.5 -53q-74 0 -114.5 52.5t-40.5 144.5
t41 145.5t114 53.5t114.5 -54t41.5 -145zM651 187q0 152 -66 152q-35 0 -51 -43t-16 -109q0 -151 66 -151q35 0 51 43t16 108zM171 -15l358 642q9 16 33 16h12q10 0 16 -5.5t2 -13.5l-358 -642q-9 -16 -33 -16h-12q-10 0 -16.5 5.5t-1.5 13.5z" />
    <glyph glyph-name="ampersand" unicode="&#x26;" horiz-adv-x="620" 
d="M473 168l135 -147q8 -8 5 -14.5t-15 -6.5h-113q-17 0 -32 17q-13 15 -26 30.5t-19 22.5t-10 12q-87 -93 -182 -93q-76 0 -128 46.5t-52 114.5q0 113 146 191q-73 90 -73 163q0 63 45 103.5t131 40.5q71 0 116.5 -36.5t45.5 -97.5q0 -99 -129 -167l114 -133
q59 100 109 100q19 0 30 -10t11 -25q0 -20 -11.5 -32t-27.5 -17.5t-36.5 -21.5t-33.5 -40zM244 76q52 0 110 58l-137 161q-77 -58 -77 -124q0 -41 29 -68t75 -27zM356 499q0 38 -21 66t-57 28q-30 0 -47.5 -22.5t-17.5 -52.5q0 -50 70 -130q73 46 73 111z" />
    <glyph glyph-name="quotesingle" unicode="'" horiz-adv-x="172" 
d="M94 485h-16q-17 0 -18 13l-19 196q-2 16 8 24t37 8t37 -8t8 -24l-19 -196q-1 -13 -18 -13z" />
    <glyph glyph-name="parenleft" unicode="(" horiz-adv-x="320" 
d="M145 306q0 -119 29 -231.5t87 -175.5q28 -30 12 -40t-47 15q-3 2 -6 5q-87 80 -132.5 190t-45.5 237t45.5 237t132.5 190q30 28 50 21q19 -6 -4 -35q-2 -3 -5 -6q-58 -63 -87 -175.5t-29 -231.5z" />
    <glyph glyph-name="parenright" unicode=")" horiz-adv-x="320" 
d="M175 306q0 119 -29 231.5t-87 175.5q-28 30 -12 40t47 -15q3 -2 6 -5q87 -80 132.5 -190t45.5 -237t-45.5 -237t-132.5 -190q-30 -28 -50 -21q-19 6 4 35q2 3 5 6q58 63 87 175.5t29 231.5z" />
    <glyph glyph-name="asterisk" unicode="*" horiz-adv-x="400" 
d="M34 605q5 15 16.5 21t23.5 2q23 -7 108 -53q-16 92 -16 119q0 13 9.5 22t24.5 9t24.5 -9t9.5 -22q0 -23 -17 -119q88 45 108 52q12 4 24 -2t16 -21q5 -15 -1 -26.5t-18 -15.5q-18 -6 -119 -21q69 -67 83 -86q18 -26 -9 -45q-13 -9 -25.5 -7.5t-20.5 12.5q-15 20 -57 106
q-43 -87 -56 -105q-18 -25 -45 -5q-28 20 -10 45q6 8 84 86q-105 16 -118 21q-12 4 -17.5 15.5t-1.5 26.5z" />
    <glyph glyph-name="plus" unicode="+" horiz-adv-x="550" 
d="M500 256q0 -19 -8.5 -26.5t-33.5 -7.5h-146v-150q0 -25 -8.5 -33.5t-28.5 -8.5t-28.5 8.5t-8.5 33.5v150h-147q-25 0 -33.5 7.5t-8.5 26.5t8.5 26.5t33.5 7.5h147v149q0 25 8.5 33.5t28.5 8.5t28.5 -8.5t8.5 -33.5v-149h146q25 0 33.5 -7.5t8.5 -26.5z" />
    <glyph glyph-name="comma" unicode="," horiz-adv-x="217" 
d="M182 33q0 -62 -39.5 -105.5t-85.5 -43.5q-19 0 -22 14.5t13 20.5q23 9 43 31t20 41q-25 0 -41.5 13t-21 31.5t-0.5 37.5t20 32t40 13q35 0 54.5 -25t19.5 -60z" />
    <glyph glyph-name="hyphen" unicode="-" horiz-adv-x="382" 
d="M326 256q0 -21 -7 -28.5t-24 -7.5h-208q-17 0 -24 7.5t-7 28.5t7 28.5t24 7.5h208q17 0 24 -7.5t7 -28.5z" />
    <glyph glyph-name="period" unicode="." horiz-adv-x="217" 
d="M173 53q0 -26 -19 -45t-46 -19q-26 0 -45.5 19t-19.5 45t19.5 44.5t45.5 18.5q27 0 46 -18.5t19 -44.5z" />
    <glyph glyph-name="slash" unicode="/" horiz-adv-x="376" 
d="M344 685l-251 -741q-8 -21 -39 -10q-30 10 -23 31l252 740q7 20 37 10q32 -10 24 -30z" />
    <glyph glyph-name="zero" unicode="0" 
d="M260 -11q-108 0 -167.5 80.5t-59.5 238.5t59.5 239.5t167.5 81.5q106 0 166 -81.5t60 -239.5q0 -157 -60 -238t-166 -81zM260 40q49 0 73.5 74.5t24.5 193.5q0 120 -24.5 195t-73.5 75q-50 0 -74.5 -75t-24.5 -195q0 -119 24.5 -193.5t74.5 -74.5z" />
    <glyph glyph-name="one" unicode="1" 
d="M431 0h-330q-21 0 -21 21v15q0 21 21 21h100v465q-51 -21 -105 -34q-20 -4 -27 18t15 29q140 50 195 83q13 9 21 9q31 0 31 -30v-540h100q21 0 21 -21v-15q0 -19 -21 -21z" />
    <glyph glyph-name="two" unicode="2" 
d="M196 106l254 1q9 0 15 -6t6 -15v-65q0 -21 -21 -21h-374q-22 0 -26 17t16 40l48 50q105 110 157 188.5t52 147.5q0 60 -31 91t-80 31q-59 0 -113 -48q-19 -17 -36 0q-18 18 0 40q4 5 10 10q75 60 177 60q85 0 142.5 -45t57.5 -131q0 -24 -10 -51t-23.5 -48.5t-41 -54.5
t-48 -54t-60.5 -62.5t-63 -65.5z" />
    <glyph glyph-name="three" unicode="3" 
d="M211 48q52 0 92.5 37.5t40.5 102.5q0 50 -29 87.5t-68 37.5h-78q-22 0 -22 25q0 10 5.5 17.5t15.5 7.5q73 0 108 26t35 87q0 44 -27 66t-68 22q-57 0 -104 -36q-33 -27 -50 -9q-12 16 3 33q69 75 187 75q77 0 132 -36.5t55 -98.5q0 -84 -84 -141q53 -19 85.5 -65.5
t32.5 -102.5q0 -82 -65.5 -138t-180.5 -56q-61 0 -121 23.5t-60 57.5q0 11 6.5 18.5t16.5 7.5q11 0 19 -8q18 -18 53.5 -29t69.5 -11z" />
    <glyph glyph-name="four" unicode="4" 
d="M490 157q0 -17 -15 -17h-45v-121q0 -19 -17 -19h-95q-17 0 -17 19v121h-246q-11 0 -18 8t-7 20t9 27l270 410q7 13 27 13h77q17 0 17 -19v-390h45q15 0 15 -17v-35zM301 483l-170 -274h170v274z" />
    <glyph glyph-name="five" unicode="5" 
d="M237 -11q-105 0 -164 53q-26 23 -12 45q12 18 33 6q3 -1 5 -3q53 -41 109 -41q55 0 91 39.5t36 107.5q0 67 -30.5 102t-80.5 35q-51 0 -106 -13q-35 -12 -35 25v273h314q21 0 21 -21v-65q0 -20 -21 -20h-246v-129q47 9 99 9q92 0 152.5 -50t60.5 -147q0 -86 -58.5 -146
t-167.5 -60z" />
    <glyph glyph-name="six" unicode="6" 
d="M359 638q43 8 49 -13q5 -16 -15 -24l-3 -1q-141 -41 -206 -226q49 23 102 23q92 0 143.5 -59t51.5 -140q0 -84 -57.5 -146.5t-158.5 -62.5q-110 0 -168 67t-58 176q0 157 88.5 269t231.5 137zM257 335q-42 0 -89 -26q-8 -39 -8 -84q0 -78 26.5 -128t78.5 -50
q42 0 67 45.5t25 103.5q0 57 -25.5 98t-74.5 41z" />
    <glyph glyph-name="seven" unicode="7" 
d="M79 618h329q39 0 49 -23.5t-9 -64.5l-228 -493q-11 -23 -19.5 -30t-27.5 -7h-55q-28 0 -29.5 14.5t12.5 34.5q1 2 109 198t145 264h-276q-9 0 -15 6t-6 15v65q0 21 21 21z" />
    <glyph glyph-name="eight" unicode="8" 
d="M342 344q51 -19 94 -68.5t43 -108.5q0 -87 -65.5 -132.5t-161.5 -45.5q-95 0 -153.5 45.5t-58.5 122.5q0 58 42 104.5t99 65.5q-49 19 -82 62.5t-33 88.5q0 72 54.5 110.5t139.5 38.5q89 0 141 -39t52 -105q0 -45 -32.5 -82.5t-78.5 -56.5zM267 572q-34 0 -56.5 -23.5
t-22.5 -61.5q0 -35 25.5 -65.5t68.5 -48.5q67 33 67 109q0 41 -20.5 65.5t-61.5 24.5zM252 46q44 0 73.5 30.5t29.5 80.5q0 45 -35.5 81.5t-79.5 55.5q-44 -16 -70 -52.5t-26 -82.5q0 -48 30 -80.5t78 -32.5z" />
    <glyph glyph-name="nine" unicode="9" 
d="M161 -22q-43 -8 -49 13q-5 16 15 24q1 0 3 1q86 26 134 85t72 151q-49 -23 -102 -23q-92 0 -143.5 56t-51.5 133q0 84 57.5 146.5t158.5 62.5q110 0 168 -67t58 -176q0 -157 -88.5 -268.5t-231.5 -137.5zM263 291q45 0 89 26q8 35 8 74q0 78 -26.5 128t-78.5 50
q-42 0 -67 -45.5t-25 -103.5q0 -53 25.5 -91t74.5 -38z" />
    <glyph glyph-name="colon" unicode=":" horiz-adv-x="217" 
d="M173 53q0 -26 -19 -45t-46 -19q-26 0 -45.5 19t-19.5 45t19.5 44.5t45.5 18.5q27 0 46 -18.5t19 -44.5zM173 337q0 -26 -19 -45t-46 -19q-26 0 -45.5 19t-19.5 45t19.5 44.5t45.5 18.5q27 0 46 -18.5t19 -44.5z" />
    <glyph glyph-name="semicolon" unicode=";" horiz-adv-x="217" 
d="M182 33q0 -62 -39.5 -105.5t-85.5 -43.5q-19 0 -22 14.5t13 20.5q23 9 43 31t20 41q-25 0 -41.5 13t-21 31.5t-0.5 37.5t20 32t40 13q35 0 54.5 -25t19.5 -60zM173 337q0 -26 -19 -45t-46 -19q-26 0 -45.5 19t-19.5 45t19.5 44.5t45.5 18.5q27 0 46 -18.5t19 -44.5z" />
    <glyph glyph-name="less" unicode="&#x3c;" horiz-adv-x="550" 
d="M90 263q0 17 13 27l307 204q14 9 29 -3.5t18.5 -30t-7.5 -28.5l-264 -176l264 -176q11 -11 7.5 -28.5t-18.5 -30t-29 -3.5l-307 204q-13 10 -13 28v13z" />
    <glyph glyph-name="equal" unicode="=" horiz-adv-x="550" 
d="M480 360q0 -20 -8.5 -28.5t-33.5 -8.5h-327q-25 0 -33.5 8.5t-8.5 28.5t8.5 28.5t33.5 8.5h327q25 0 33.5 -8.5t8.5 -28.5zM480 152q0 -20 -8.5 -28.5t-33.5 -8.5h-327q-25 0 -33.5 8.5t-8.5 28.5t8.5 28.5t33.5 8.5h327q25 0 33.5 -8.5t8.5 -28.5z" />
    <glyph glyph-name="greater" unicode="&#x3e;" horiz-adv-x="550" 
d="M476 263v-13q0 -18 -13 -28l-307 -204q-14 -9 -29 3.5t-18.5 30t7.5 28.5l264 176l-264 176q-11 11 -7.5 28.5t18.5 30t29 3.5l307 -204q13 -10 13 -27z" />
    <glyph glyph-name="question" unicode="?" horiz-adv-x="460" 
d="M259 247v-42q0 -17 -17 -17h-57q-17 0 -17 17v42q0 41 21.5 80t47 65t47 62t21.5 70q0 114 -94 114q-25 0 -46 -14t-33 -30.5t-28 -30.5t-32 -14t-26.5 10.5t-6.5 31t29 44.5q64 51 157 51q87 0 140 -43t53 -116q0 -44 -24.5 -80t-65.5 -74q-41 -39 -55 -63.5t-14 -62.5z
M213 -11q-27 0 -46.5 18.5t-19.5 44.5q0 27 19.5 45.5t46.5 18.5t46.5 -18.5t19.5 -45.5q0 -26 -19.5 -44.5t-46.5 -18.5z" />
    <glyph glyph-name="at" unicode="@" horiz-adv-x="950" 
d="M546 715q93 0 163 -26t110.5 -71.5t60.5 -99.5t20 -117q0 -136 -78.5 -247.5t-186.5 -111.5q-67 0 -95 50q-50 -50 -120 -50q-69 0 -118.5 52t-49.5 148q0 120 70.5 202.5t182.5 82.5q87 0 128.5 -46t29.5 -122q-5 -32 -16.5 -104t-16.5 -110q-7 -48 25 -48q20 0 41 17
q46 37 77.5 109.5t31.5 166.5q0 124 -67.5 203.5t-195.5 79.5q-165 0 -277.5 -124.5t-112.5 -302.5q0 -169 83.5 -262t247.5 -93q103 0 228 71q28 16 40 -2q10 -17 -9 -32q-2 -1 -5 -3q-146 -82 -283 -82q-186 0 -295 99t-109 277q0 139 66 253.5t179.5 178.5t250.5 64z
M566 367q7 45 -9.5 81t-59.5 36q-57 0 -99 -70t-42 -162q0 -83 26 -120.5t64 -37.5q23 0 47 11.5t35 28.5q8 40 23 136z" />
    <glyph glyph-name="A" unicode="A" horiz-adv-x="583" 
d="M576 25q2 -6 2 -10q0 -15 -15 -15h-90q-15 0 -21.5 5.5t-11.5 19.5q-29 89 -62 190h-233l-61 -190q-5 -14 -11.5 -19.5t-21.5 -5.5h-31q-15 0 -15 15q0 8 12 41q4 12 206 594q4 12 20 15l90 14q16 3 21 -15zM163 268h197l-98 304z" />
    <glyph glyph-name="B" unicode="B" horiz-adv-x="565" 
d="M533 188q0 -71 -40.5 -117.5t-98 -64t-130.5 -17.5q-82 0 -155 21q-15 4 -22.5 15t-8.5 22.5t-1 37.5v548q0 27 26 33q78 20 174 20q112 0 167 -49t55 -121q0 -49 -28.5 -89t-74.5 -61q64 -18 100.5 -63.5t36.5 -114.5zM404 199q0 69 -33.5 102t-122.5 33h-48v-278
q26 -8 72 -8q132 0 132 151zM377 508q0 67 -27.5 95t-81.5 28q-33 0 -68 -7v-236h40q70 0 103.5 26.5t33.5 93.5z" />
    <glyph glyph-name="C" unicode="C" horiz-adv-x="553" 
d="M335 624q-78 0 -118 -74.5t-40 -203.5q0 -138 43.5 -215.5t129.5 -77.5q21 0 40 3.5t36.5 11t27 12.5t25.5 15t18 11q17 10 29 -6.5t2 -34.5q-16 -28 -71.5 -52t-119.5 -24q-146 0 -219 93.5t-73 253.5t74 255t215 95q64 0 121.5 -24t73.5 -52q9 -14 0.5 -31t-30.5 -17
q-13 0 -35 15.5t-56 31t-73 15.5z" />
    <glyph glyph-name="D" unicode="D" horiz-adv-x="630" 
d="M271 -11q-84 0 -162 20q-20 5 -26 13t-6 24v583q0 16 5.5 23.5t26.5 13.5q80 20 151 20q325 0 325 -340q0 -357 -314 -357zM453 337q0 294 -187 294q-35 0 -64 -6v-571q30 -6 70 -6q181 0 181 289z" />
    <glyph glyph-name="E" unicode="E" horiz-adv-x="499" 
d="M201 308v-239q30 -11 111 -11q83 0 156 11q11 1 16 -13.5t1 -31t-15 -18.5q-78 -12 -163 -12q-230 0 -230 62v564q0 62 230 62q74 0 143 -12q11 -2 15 -18.5t-1 -31.5t-16 -13q-80 12 -140 12q-66 0 -107 -12v-236h191q17 0 17 -23v-17q0 -23 -17 -23h-191z" />
    <glyph glyph-name="F" unicode="F" horiz-adv-x="467" 
d="M450 670q11 -2 15 -18.5t-1 -31t-16 -13.5q-72 11 -132 11t-115 -11v-230h191q17 0 17 -23v-17q0 -23 -17 -23h-191v-297q0 -17 -17 -17h-90q-17 0 -17 17v603q0 62 230 62q74 0 143 -12z" />
    <glyph glyph-name="G" unicode="G" horiz-adv-x="626" 
d="M449 85v219q0 17 17 17h90q17 0 17 -17v-192q0 -56 -76.5 -89.5t-156.5 -33.5q-142 0 -218.5 92t-76.5 255q0 179 82 264.5t228 85.5q73 0 135.5 -28.5t62.5 -62.5q0 -15 -9 -24.5t-25 -9.5q-12 0 -34.5 16.5t-56 33t-72.5 16.5q-94 0 -136.5 -72t-42.5 -212
q0 -141 43.5 -215.5t119.5 -74.5q65 0 109 32z" />
    <glyph glyph-name="H" unicode="H" horiz-adv-x="668" 
d="M201 658v-270h266v270q0 17 17 17h90q17 0 17 -17v-641q0 -17 -17 -17h-90q-17 0 -17 17v308h-266v-308q0 -17 -17 -17h-90q-17 0 -17 17v641q0 17 17 17h90q17 0 17 -17z" />
    <glyph glyph-name="I" unicode="I" horiz-adv-x="278" 
d="M201 658v-641q0 -17 -17 -17h-90q-17 0 -17 17v641q0 17 17 17h90q17 0 17 -17z" />
    <glyph glyph-name="J" unicode="J" horiz-adv-x="278" 
d="M201 658v-479q0 -47 -9.5 -97.5t-31.5 -104t-65.5 -87.5t-103.5 -34q-15 0 -24 6t-9 14q0 16 28 22q26 6 44 26t27 42t14 58.5t5.5 58.5t0.5 58v517q0 17 17 17h90q17 0 17 -17z" />
    <glyph glyph-name="K" unicode="K" horiz-adv-x="603" 
d="M489 675h20q40 0 12 -36q-115 -136 -207 -246l194 -303q16 -25 37 -30t50 5q18 6 26 -10q10 -21 -17 -37q-5 -3 -11 -5q-85 -31 -127 -22t-76 60q-64 96 -157 246l-32 -39v-241q0 -17 -17 -17h-90q-17 0 -17 17v641q0 17 17 17h90q17 0 17 -17v-310l239 298q23 29 49 29z
" />
    <glyph glyph-name="L" unicode="L" horiz-adv-x="437" 
d="M201 658v-589q33 -11 91 -11q72 0 126 11q11 2 16 -13t1 -31.5t-15 -18.5q-64 -12 -133 -12q-210 0 -210 62v602q0 17 17 17h90q17 0 17 -17z" />
    <glyph glyph-name="M" unicode="M" horiz-adv-x="817" 
d="M259 656q91 -216 149 -477q47 223 150 477q9 19 29 19h93q25 0 27 -25q2 -26 50 -603q2 -18 1 -28.5t-6.5 -14.5t-19.5 -4h-77q-13 0 -18 5.5t-7 19.5l-39 520q-38 -68 -85 -220.5t-67 -263.5q-5 -31 -40 -31h-45q-34 0 -40 31q-26 121 -70.5 269.5t-81.5 214.5
q-22 -379 -34 -520q-2 -14 -7 -19.5t-18 -5.5h-18q-21 0 -24.5 9t-0.5 38q6 71 22.5 275t27.5 328q1 15 10 20t31 5h79q20 0 29 -19z" />
    <glyph glyph-name="N" unicode="N" horiz-adv-x="649" 
d="M506 204v454q0 17 17 17h32q17 0 17 -17v-635q0 -23 -25 -23h-34q-25 0 -36 20q-144 259 -334 472v-475q0 -17 -17 -17h-32q-17 0 -17 17v635q0 23 25 23h24q28 0 46 -20q198 -202 334 -451z" />
    <glyph glyph-name="O" unicode="O" horiz-adv-x="669" 
d="M624 337q0 -162 -77 -255t-212 -93t-212.5 94.5t-77.5 256.5q0 159 76.5 252.5t213.5 93.5q136 0 212.5 -94.5t76.5 -254.5zM492 335q0 71 -14.5 135t-52 112t-92.5 48t-92 -47.5t-50.5 -109t-13.5 -129.5q0 -72 15 -136t52.5 -111.5t91.5 -47.5q41 0 73 26.5t49 70.5
t25.5 91.5t8.5 97.5z" />
    <glyph glyph-name="P" unicode="P" horiz-adv-x="550" 
d="M395 471q0 151 -125 151q-45 0 -69 -7v-291q30 -18 71 -18q123 0 123 165zM269 686q129 0 193.5 -56.5t64.5 -154.5q0 -112 -62 -173t-155 -61q-51 0 -109 21v-245q0 -17 -17 -17h-90q-17 0 -17 17v612q0 16 5.5 23.5t26.5 13.5q75 20 160 20z" />
    <glyph glyph-name="Q" unicode="Q" horiz-adv-x="668" 
d="M624 337q0 -127 -48.5 -213t-136.5 -118q54 -50 174 -91q21 -7 15 -27q-5 -22 -31 -23q-6 0 -12 2q-78 20 -153 53.5t-115 69.5q-127 6 -199.5 100t-72.5 250q0 159 76.5 252.5t213.5 93.5q136 0 212.5 -94.5t76.5 -254.5zM492 335q0 71 -14.5 135t-52 112t-92.5 48
t-92 -47.5t-50.5 -109t-13.5 -129.5q0 -72 15 -136t52.5 -111t91.5 -47q41 0 73 26.5t49 70t25.5 91t8.5 97.5z" />
    <glyph glyph-name="R" unicode="R" horiz-adv-x="583" 
d="M269 686q127 0 190 -49t63 -133q0 -83 -44 -137.5t-123 -71.5q44 -69 133 -203q21 -25 30.5 -29t36.5 4q18 6 26 -10q10 -21 -17 -37q-5 -3 -11 -5q-54 -26 -91 -26q-58 0 -99 64q-35 54 -140 229h-22v-265q0 -17 -17 -17h-90q-17 0 -17 17v612q0 16 5.5 23.5t26.5 13.5
q75 20 160 20zM270 624q-45 0 -69 -7v-280h65q127 0 127 160q0 127 -123 127z" />
    <glyph glyph-name="S" unicode="S" horiz-adv-x="494" 
d="M226 51q54 0 86 27t32 77q0 67 -76 112q-16 9 -56.5 31.5t-57 33t-45 32t-40.5 40t-22.5 46.5t-10.5 61q0 75 59 125t155 50q70 0 121.5 -29t51.5 -63q0 -29 -22 -36.5t-35 9.5q-50 60 -115 60q-47 0 -71.5 -26.5t-24.5 -67.5q0 -22 10.5 -42t35.5 -39t41.5 -29.5t55 -31
t49.5 -27.5q117 -69 117 -183q0 -83 -66 -137.5t-178 -54.5q-77 0 -134.5 34t-57.5 71q0 30 23 38t37 -10q64 -71 138 -71z" />
    <glyph glyph-name="T" unicode="T" horiz-adv-x="475" 
d="M299 608v-591q0 -17 -17 -17h-90q-17 0 -17 17v591h-154q-16 0 -16 23v22q0 22 16 22h432q17 0 17 -22v-22q0 -23 -17 -23h-154z" />
    <glyph glyph-name="U" unicode="U" horiz-adv-x="649" 
d="M578 232q0 -116 -72 -179.5t-181 -63.5t-181.5 63.5t-72.5 179.5v426q0 17 18 17h89q17 0 17 -17v-458q0 -65 41.5 -105t106.5 -40q64 0 105 40t41 105v458q0 17 18 17h54q17 0 17 -17v-426z" />
    <glyph glyph-name="V" unicode="V" horiz-adv-x="556" 
d="M308 124q100 250 172 535q4 16 22 16h33q20 0 14 -30q-56 -239 -220 -629q-6 -16 -22 -16h-57q-14 0 -22 16q-59 124 -121 303t-99 326q-5 12 -2.5 21t16.5 9h88q18 0 22 -16q65 -258 176 -535z" />
    <glyph glyph-name="W" unicode="W" horiz-adv-x="821" 
d="M611 124q63 203 134 535q3 16 22 16h33q20 0 14 -30q-74 -346 -178 -629q-6 -16 -22 -16h-61q-14 0 -22 16q-60 138 -120 391q-66 -242 -120 -391q-6 -16 -22 -16h-61q-14 0 -22 16q-52 119 -101.5 297.5t-76.5 329.5q0 1 -0.5 4.5t-1 5t-0.5 4.5v4.5t0.5 4.5t2 4t3 2.5
t4.5 2t6 0.5h88q19 0 22 -16q54 -277 134 -535q94 304 134 535q3 16 22 16h35q17 0 20 -16q46 -251 134 -535z" />
    <glyph glyph-name="X" unicode="X" horiz-adv-x="621" 
d="M282 281l-171 -267q-9 -14 -25 -14h-34q-13 0 -15 11.5t5 20.5l205 312l-127 240q-14 27 -27.5 33t-39.5 -3q-18 -6 -26 10q-10 21 17 37l11 5q49 20 93 20q55 0 90 -63q14 -25 103 -203l152 241q8 14 24 14h29q14 0 16.5 -11t-5.5 -21l-184 -279l153 -273
q14 -26 36 -30.5t51 5.5q18 6 26 -10q10 -21 -17 -37q-5 -3 -11 -5q-62 -25 -103 -25q-61 0 -100 63q-19 30 -40.5 69t-47.5 88t-38 72z" />
    <glyph glyph-name="Y" unicode="Y" horiz-adv-x="537" 
d="M485 675h31q20 0 13 -18q-97 -230 -198 -384v-256q0 -17 -17 -17h-90q-17 0 -17 17v256q-125 192 -199 384q-7 18 13 18h95q17 0 21 -10q6 -12 35.5 -76t42.5 -92t38 -77t47 -86q86 145 163 331q4 10 22 10z" />
    <glyph glyph-name="Z" unicode="Z" horiz-adv-x="528" 
d="M519 130q-23 -76 -80.5 -108.5t-164.5 -32.5q-130 0 -206 22q-12 4 -20 8t-18 13t-8 20.5t9 30.5l314 485h-276q-16 0 -16 17v74q0 16 16 16h389q17 0 17 -16q0 -7 -5 -17l-336 -518q20 -11 65 -18.5t81 -7.5q86 0 133 18t74 64q11 19 24 9q18 -14 8 -59z" />
    <glyph glyph-name="bracketleft" unicode="[" horiz-adv-x="320" 
d="M52 -8v619q0 81 21 108t93 27h86q16 0 16 -22v-5q0 -21 -16 -21h-54q-34 0 -41.5 -11.5t-7.5 -62.5v-645q0 -51 7.5 -62.5t41.5 -11.5h54q16 0 16 -21v-5q0 -22 -16 -22h-86q-72 0 -93 27t-21 108z" />
    <glyph glyph-name="backslash" unicode="\" horiz-adv-x="376" 
d="M283 -56l-251 741q-8 20 24 30q30 10 37 -10l252 -740q7 -21 -23 -31q-31 -11 -39 10z" />
    <glyph glyph-name="bracketright" unicode="]" horiz-adv-x="320" 
d="M268 611v-619q0 -81 -21 -108t-93 -27h-86q-16 0 -16 22v5q0 21 16 21h54q34 0 41.5 11.5t7.5 62.5v645q0 51 -7.5 62.5t-41.5 11.5h-54q-16 0 -16 21v5q0 22 16 22h86q72 0 93 -27t21 -108z" />
    <glyph glyph-name="asciicircum" unicode="^" horiz-adv-x="550" 
d="M282 686q16 0 27 -15l184 -290q13 -22 7 -32t-26 -10q-24 0 -36.5 4.5t-22.5 21.5l-140 227l-140 -227q-10 -17 -22.5 -21.5t-36.5 -4.5q-20 0 -26 10t7 32l184 290q11 15 28 15h13z" />
    <glyph glyph-name="underscore" unicode="_" horiz-adv-x="500" 
d="M495 -93q0 -21 -7 -28.5t-24 -7.5h-428q-17 0 -24 7.5t-7 28.5t7 28.5t24 7.5h428q17 0 24 -7.5t7 -28.5z" />
    <glyph glyph-name="grave" unicode="`" horiz-adv-x="300" 
d="M241 576q13 -16 -1 -27q-19 -17 -59 14q-8 6 -122 98q-17 14 10 29q21 12 46 12q28 0 53 -31q38 -48 73 -95z" />
    <glyph glyph-name="a" unicode="a" horiz-adv-x="543" 
d="M346 86v199q0 160 -87 160q-35 0 -59 -33.5t-34 -78t-10 -93.5q0 -91 26 -143t70 -52q55 0 94 41zM483 -11q-83 0 -118 60q-55 -60 -146 -60q-86 0 -135 70.5t-49 170.5q0 119 62.5 191t166.5 72q110 0 154.5 -61t44.5 -173v-120q0 -96 65 -96q40 0 78 55q7 10 16 12
t15 -2t6 -11q0 -37 -48 -72.5t-112 -35.5z" />
    <glyph glyph-name="b" unicode="b" 
d="M485 252q0 -119 -63.5 -191t-170.5 -72q-117 0 -158.5 58t-41.5 181v473q0 21 21 21h76q20 0 20 -21v-259q55 51 128 51q90 0 139.5 -70t49.5 -171zM364 244q0 93 -26 144t-75 51q-54 0 -95 -41v-228q0 -27 3 -47t11 -42t27.5 -33.5t48.5 -11.5q41 0 66 35t32.5 77.5
t7.5 95.5z" />
    <glyph glyph-name="c" unicode="c" horiz-adv-x="400" 
d="M375 93q15 12 26.5 0.5t-1.5 -27.5q-25 -29 -65.5 -53t-89.5 -24q-98 0 -154 68.5t-56 185.5q0 111 56 180.5t153 69.5q62 0 107.5 -25t45.5 -54q0 -25 -33 -25q-16 0 -50 27.5t-67 27.5q-43 0 -67 -57.5t-24 -132.5q0 -203 111 -203q48 0 108 42z" />
    <glyph glyph-name="d" unicode="d" horiz-adv-x="548" 
d="M351 92v315q-31 32 -88 32q-29 0 -51 -18t-33.5 -48.5t-17 -63t-5.5 -68.5q0 -83 27.5 -142.5t80.5 -59.5q28 0 51.5 15t35.5 38zM488 -11q-84 0 -119 62q-54 -62 -150 -62q-64 0 -107.5 39t-60 92.5t-16.5 115.5q0 108 51 182.5t155 74.5q67 0 110 -41v249q0 21 21 21
h75q21 0 21 -21v-562q0 -96 65 -96q40 0 78 55q7 10 16 12t15 -2t6 -11q0 -37 -48 -72.5t-112 -35.5z" />
    <glyph glyph-name="e" unicode="e" horiz-adv-x="421" 
d="M153 229q5 -89 38.5 -133.5t82.5 -44.5q54 0 98 42q19 17 30.5 6t0.5 -27q-21 -35 -62 -59t-93 -24q-100 0 -156.5 68t-56.5 187q0 112 56.5 180.5t153.5 68.5q71 0 113.5 -45t42.5 -105q0 -65 -47 -102.5t-110 -37.5q-53 0 -91 26zM223 257q40 0 60.5 26t20.5 63
t-18.5 67t-47.5 30q-25 0 -43 -20.5t-26.5 -50.5t-12.5 -54.5t-4 -42.5q30 -18 71 -18z" />
    <glyph glyph-name="f" unicode="f" horiz-adv-x="282" 
d="M242 742q47 0 81.5 -20t34.5 -43q0 -25 -23 -25q-12 0 -38 19.5t-52 19.5q-51 0 -51 -85v-126h68q20 0 18 -18q-3 -21 -25 -27q-5 -2 -11 -2h-50q0 -27 -0.5 -79t-1.5 -158t-2 -228q0 -24 -22 -27l-51 -8q-7 -1 -11 5t-5 15q-6 80 -12 200t-9 200l-3 80h-44
q-23 0 -18 19.5t25 26.5q4 1 8 1h29v84q0 92 48.5 134t116.5 42z" />
    <glyph glyph-name="g" unicode="g" horiz-adv-x="519" 
d="M351 102v183q0 160 -92 160q-35 0 -59 -33t-34 -77.5t-10 -93.5q0 -78 27.5 -135t80.5 -57q28 0 51.5 15t35.5 38zM468 259v-188q0 -140 -59 -224.5t-166 -84.5q-95 0 -148 59q-24 27 -10 41.5t40 -7.5q41 -34 88 -34q60 0 99 55.5t39 150.5v15q-53 -43 -132 -43
q-64 0 -107.5 37.5t-60 88.5t-16.5 111q0 119 62 188t167 69q111 0 157.5 -61.5t46.5 -172.5z" />
    <glyph glyph-name="h" unicode="h" horiz-adv-x="538" 
d="M478 -11q-69 0 -103 40t-34 104v215q0 92 -65 92q-39 0 -92 -46v-373q0 -21 -21 -21h-75q-21 0 -21 21v680q0 21 21 21h75q21 0 21 -21v-260q67 52 133 52q141 0 141 -162v-192q0 -96 65 -96q40 0 78 55q7 10 16 12t15 -2t6 -11q0 -37 -48 -72.5t-112 -35.5z" />
    <glyph glyph-name="i" unicode="i" horiz-adv-x="264" 
d="M192 634q0 -25 -19.5 -42t-47.5 -17t-47 17t-19 42q0 26 19 43.5t47 17.5t47.5 -17.5t19.5 -43.5zM204 -11q-69 0 -103 40t-34 104v328q0 21 21 21h75q21 0 21 -21v-322q0 -96 65 -96q40 0 78 55q7 10 16 12t15 -2t6 -11q0 -37 -48 -72.5t-112 -35.5z" />
    <glyph glyph-name="j" unicode="j" horiz-adv-x="251" 
d="M184 461v-286q0 -49 -4.5 -97t-16 -107t-37.5 -108t-64 -76q-34 -25 -81 -25q-15 0 -24 6t-9 14q0 16 28 22q26 6 44 26t27 42t14 58.5t5.5 58.5t0.5 58v414q0 21 21 21h76q20 0 20 -21zM192 634q0 -25 -19.5 -42t-47.5 -17t-47 17t-19 42q0 26 19 43.5t47 17.5
t47.5 -17.5t19.5 -43.5z" />
    <glyph glyph-name="k" unicode="k" horiz-adv-x="490" 
d="M441 451l-164 -149l153 -227q23 -34 61 -18q15 6 22 -11q7 -22 -17 -35q-39 -22 -79 -22t-62.5 14t-47.5 53l-123 192v-227q0 -21 -21 -21h-75q-21 0 -21 21v680q0 21 21 21h75q21 0 21 -21v-412l184 177q17 16 30 16h32q18 0 18 -17q0 -7 -7 -14z" />
    <glyph glyph-name="l" unicode="l" horiz-adv-x="261" 
d="M201 -11q-70 0 -105.5 40t-35.5 104q0 303 18 557q2 21 21 27l51 14q5 2 12 2q19 0 19 -20v-574q0 -96 65 -96q40 0 78 55q10 13 22 13q15 0 15 -14q0 -37 -48 -72.5t-112 -35.5z" />
    <glyph glyph-name="m" unicode="m" horiz-adv-x="780" 
d="M720 -11q-69 0 -103 40t-34 104v215q0 92 -65 92q-18 0 -43 -13.5t-39 -34.5q3 -8 4.5 -22.5t1.5 -25.5v-10v-313q0 -21 -21 -21h-75q-21 0 -21 21v327q0 92 -65 92q-18 0 -39.5 -12.5t-36.5 -33.5v-373q0 -21 -21 -21h-75q-21 0 -21 21v440q0 21 21 21h75q21 0 21 -21
v-20q55 52 126 52q72 0 111 -60q66 60 142 60q59 0 98 -41.5t39 -120.5v-192q0 -96 65 -96q40 0 78 55q7 10 16 12t15 -2t6 -11q0 -37 -48 -72.5t-112 -35.5z" />
    <glyph glyph-name="n" unicode="n" horiz-adv-x="538" 
d="M478 -11q-69 0 -103 40t-34 104v215q0 92 -65 92q-39 0 -92 -46v-373q0 -21 -21 -21h-75q-21 0 -21 21v440q0 21 21 21h75q21 0 21 -21v-20q67 52 133 52q141 0 141 -162v-192q0 -96 65 -96q40 0 78 55q7 10 16 12t15 -2t6 -11q0 -37 -48 -72.5t-112 -35.5z" />
    <glyph glyph-name="o" unicode="o" horiz-adv-x="509" 
d="M474 242q0 -112 -56.5 -182.5t-162.5 -70.5q-107 0 -163.5 70.5t-56.5 182.5q0 111 57 181t163 70q105 0 162 -70.5t57 -180.5zM353 241q0 35 -4 68t-14 67.5t-30.5 55.5t-49.5 21t-50 -20t-31 -53.5t-14 -66t-4 -67.5q0 -36 4 -69t14 -68t31 -56t50 -21q30 0 50.5 20
t30 54.5t13.5 66.5t4 68z" />
    <glyph glyph-name="p" unicode="p" horiz-adv-x="519" 
d="M169 27v-233q0 -21 -21 -21h-76q-21 0 -21 21v469q0 230 203 230q115 0 172.5 -69t57.5 -178q0 -103 -53.5 -180t-152.5 -77q-71 0 -109 38zM363 244q0 48 -9 90.5t-34.5 76.5t-63.5 34q-88 0 -88 -140v-225q37 -35 87 -35q53 0 80.5 53t27.5 146z" />
    <glyph glyph-name="q" unicode="q" horiz-adv-x="519" 
d="M468 259v-465q0 -21 -21 -21h-75q-21 0 -21 21v246q-49 -51 -127 -51q-90 0 -139.5 70t-49.5 171q0 120 63 191.5t171 71.5q110 0 154.5 -61t44.5 -173zM156 240q0 -93 26 -144t75 -51q57 0 94 48v192q0 160 -87 160q-55 0 -81.5 -62.5t-26.5 -142.5z" />
    <glyph glyph-name="r" unicode="r" horiz-adv-x="353" 
d="M184 461v-32q50 64 120 64q47 0 62 -41q11 -32 -9 -52q-9 -9 -24 -9t-41.5 12.5t-45.5 12.5q-28 0 -45 -26.5t-17 -76.5v-292q0 -21 -21 -21h-75q-21 0 -21 21v440q0 21 21 21h75q21 0 21 -21z" />
    <glyph glyph-name="s" unicode="s" horiz-adv-x="379" 
d="M339 409q0 -20 -21 -20q-13 0 -46 28t-63 28q-23 0 -38 -14t-15 -36q0 -21 14.5 -40.5t36.5 -34t47 -33.5t47 -37.5t36.5 -46.5t14.5 -61q0 -72 -50.5 -112.5t-115.5 -40.5q-55 0 -104 40.5t-49 89.5q0 14 8 22.5t19 8.5q23 0 34 -30q15 -41 39.5 -61.5t51.5 -20.5
q30 0 48.5 17t18.5 44q0 47 -71 93q-30 20 -45 31t-37 32.5t-31.5 46t-9.5 54.5q0 65 43.5 101t101.5 36q53 0 94.5 -24t41.5 -60z" />
    <glyph glyph-name="t" unicode="t" horiz-adv-x="277" 
d="M197 -11q-69 0 -103 40t-34 104v302h-38q-19 0 -19 14q0 11 10.5 22t23.5 11h27l30 99q6 21 27 31.5t43 10.5q13 0 13 -18v-123h64q18 0 18 -16q0 -11 -10 -21t-26 -10h-46v-296q0 -96 65 -96q45 0 88 55q10 13 22 13q15 0 15 -14q0 -37 -50.5 -72.5t-119.5 -35.5z" />
    <glyph glyph-name="u" unicode="u" horiz-adv-x="522" 
d="M462 -11q-87 0 -120 54q-68 -54 -150 -54q-141 0 -141 162v310q0 21 21 21h75q21 0 21 -21v-327q0 -92 65 -92q39 0 92 46v373q0 21 21 21h75q21 0 21 -21v-322q0 -96 65 -96q40 0 78 55q7 10 16 12t15 -2t6 -11q0 -37 -48 -72.5t-112 -35.5z" />
    <glyph glyph-name="v" unicode="v" horiz-adv-x="443" 
d="M247 105q13 33 25 67t24.5 77.5t19 66t21.5 79.5t19 70q5 17 23 17h42q23 0 16 -29q-49 -189 -164 -436q-8 -17 -24 -17h-52q-16 0 -24 16q-92 189 -166 437q-9 29 18 29h86q18 0 25 -17q4 -15 15.5 -58.5t17 -63.5t17 -58.5t19.5 -64t19.5 -57t22.5 -58.5z" />
    <glyph glyph-name="w" unicode="w" horiz-adv-x="704" 
d="M232 105q43 133 99 360q3 11 8.5 14t25.5 3h23q26 -1 30 -17q60 -226 110 -360q58 180 99 360q5 17 34 17h8q34 0 27 -29q-24 -99 -64 -223t-78 -213q-7 -17 -34 -17h-39q-25 0 -33 16q-44 102 -99 285q-42 -156 -91 -284q-7 -17 -34 -17h-39q-25 0 -33 16
q-35 83 -78 213t-66 224q-7 29 28 29h61q30 0 35 -17q53 -222 100 -360z" />
    <glyph glyph-name="x" unicode="x" horiz-adv-x="460" 
d="M169 237l-135 224q-5 9 -1 15t13 6h89q26 0 37 -20l77 -141l112 146q11 15 28 15h30q12 0 15.5 -10.5t-4.5 -20.5l-150 -186l114 -190q15 -26 36 -26q12 0 31 8q13 6 18 -10q7 -21 -18 -34l-3 -2q-49 -22 -101 -22q-45 0 -64 31l-92 158l-124 -174q-11 -15 -28 -15h-35
q-16 0 -16 16q0 7 6 15z" />
    <glyph glyph-name="y" unicode="y" horiz-adv-x="509" 
d="M202 -11q-151 0 -151 192v280q0 21 21 21h75q21 0 21 -21v-302q0 -110 77 -110q45 0 80 43v369q0 21 21 21h75q21 0 21 -21v-390q0 -140 -59 -224.5t-166 -84.5q-53 0 -108 27t-55 62q0 16 17 16q13 0 28 -12q41 -34 88 -34q60 0 99 55.5t39 150.5v11q-54 -49 -123 -49z
" />
    <glyph glyph-name="z" unicode="z" horiz-adv-x="394" 
d="M28 35q0 13 12 31l215 309h-187q-23 0 -23 21v65q0 21 21 21h289q26 0 26 -25q0 -9 -5 -19l-234 -339q20 -17 62 -28.5t82 -11.5q64 0 104 27q8 6 12 6q9 0 9 -14q0 -17 -8 -38q-11 -20 -17 -28.5t-21.5 -24t-39.5 -22t-58 -6.5q-137 0 -223 51q-16 10 -16 25z" />
    <glyph glyph-name="braceleft" unicode="{" horiz-adv-x="320" 
d="M116 302q86 -26 86 -143v-162q0 -49 14.5 -73t56.5 -24q21 0 21 -20q0 -24 -35 -24q-81 0 -120.5 36.5t-39.5 112.5v166q0 48 -8 73t-35 33q-30 9 -30 25t30 25q27 8 35 33t8 73v166q0 76 39.5 112.5t120.5 36.5q35 0 35 -24q0 -20 -21 -20q-42 0 -56.5 -24t-14.5 -73
v-162q0 -117 -86 -143z" />
    <glyph glyph-name="bar" unicode="|" horiz-adv-x="200" 
d="M136 699v-842q0 -23 -37 -23q-36 0 -36 23v842q0 23 36 23q37 0 37 -23z" />
    <glyph glyph-name="braceright" unicode="}" horiz-adv-x="320" 
d="M204 302q-86 26 -86 143v162q0 49 -14.5 73t-56.5 24q-21 0 -21 20q0 24 35 24q81 0 120.5 -36.5t39.5 -112.5v-166q0 -48 8 -73t35 -33q30 -9 30 -25t-30 -25q-27 -8 -35 -33t-8 -73v-166q0 -76 -39.5 -112.5t-120.5 -36.5q-35 0 -35 24q0 20 21 20q42 0 56.5 24
t14.5 73v162q0 117 86 143z" />
    <glyph glyph-name="asciitilde" unicode="~" horiz-adv-x="550" 
d="M384 256q8 0 15 1.5t14 6t11.5 8t11 10.5t10 11t10.5 13t10 13q12 16 29.5 13t17.5 -24q0 -36 -45.5 -84.5t-104.5 -48.5q-43 0 -112.5 41t-84.5 41q-8 0 -15 -1.5t-14 -6t-11.5 -8t-11 -10.5t-10 -11t-10.5 -13t-10 -13q-12 -16 -29.5 -13t-17.5 24q0 36 45.5 84.5
t104.5 48.5q43 0 112.5 -41t84.5 -41z" />
    <glyph glyph-name="uni00A0" unicode="&#xa0;" horiz-adv-x="277" 
 />
    <glyph glyph-name="exclamdown" unicode="&#xa1;" horiz-adv-x="210" 
d="M105 564q27 0 46.5 -18.5t19.5 -44.5q0 -27 -19.5 -45.5t-46.5 -18.5t-46.5 18.5t-19.5 45.5q0 26 19.5 44.5t46.5 18.5zM97 373h17q23 0 24 -16q3 -42 8.5 -123.5t12.5 -184.5t10 -149q2 -22 -21 -22h-85q-23 0 -21 22q3 46 10 149t12.5 184.5t8.5 123.5q1 16 24 16z
" />
    <glyph glyph-name="cent" unicode="&#xa2;" 
d="M321 542v-51q44 -6 77 -29t33 -43q0 -30 -31 -30q-11 0 -35.5 22t-43.5 29v-392q41 1 100 48q11 8 19.5 3t8.5 -16t-7 -20q-51 -54 -121 -69v-54q0 -28 -27 -28q-26 0 -26 28v49q-85 4 -142 64.5t-57 182.5q0 107 54 176t145 79v51q0 28 26 28q27 0 27 -28zM190 245
q0 -144 78 -185v377q-39 -18 -58.5 -73.5t-19.5 -118.5z" />
    <glyph glyph-name="sterling" unicode="&#xa3;" 
d="M184 97h262q9 0 15 -6t6 -15v-55q0 -19 -21 -21h-391q-18 0 -22 12.5t14 29.5q57 52 90 121.5t18 134.5h-82q-28 0 -28 27q0 26 28 26h66q-4 12 -11.5 30t-11.5 28t-7.5 25.5t-3.5 31.5q0 75 53 118t144 43q63 0 105 -27t42 -63q0 -30 -19.5 -36.5t-36.5 19.5
q-34 55 -94 55q-33 0 -53 -23.5t-20 -65.5q0 -23 5.5 -43t19 -50.5t17.5 -41.5h102q28 0 28 -26q0 -27 -28 -27h-94q1 -6 1 -15q0 -113 -93 -186z" />
    <glyph glyph-name="currency" unicode="&#xa4;" 
d="M443 269q0 -59 -30 -106l34 -35q12 -12 12 -27q0 -12 -11.5 -24.5t-23.5 -12.5t-27 15l-33 34q-44 -33 -107 -33q-62 0 -106 33l-34 -33q-16 -16 -26 -16q-12 0 -23.5 12.5t-11.5 24.5q0 16 11 27l35 35q-31 48 -31 106t31 106l-35 35q-11 11 -11 26q0 13 11.5 25
t23.5 12t26 -14l34 -34q44 33 106 33q63 0 107 -33l33 33q15 15 27 15t23.5 -12.5t11.5 -24.5q0 -14 -12 -26l-34 -35q30 -46 30 -106zM376 269q0 51 -34.5 86.5t-84.5 35.5q-49 0 -83.5 -35.5t-34.5 -86.5t34 -86t84 -35t84.5 35t34.5 86z" />
    <glyph glyph-name="yen" unicode="&#xa5;" 
d="M328 231v-18h119q28 0 28 -26q0 -27 -28 -27h-119v-141q0 -19 -17 -19h-84q-17 0 -17 19v141h-123q-28 0 -28 27q0 26 28 26h123v18l-25 45h-98q-28 0 -28 27q0 26 28 26h69l-141 259q-7 14 -4 22.5t15 8.5h90q20 0 32 -23l141 -286l137 286q11 23 32 23h37q12 0 15 -8.5
t-4 -22.5l-129 -259h70q28 0 28 -26q0 -27 -28 -27h-97z" />
    <glyph glyph-name="brokenbar" unicode="&#xa6;" horiz-adv-x="200" 
d="M136 204v-344q0 -23 -37 -23q-36 0 -36 23v344q0 23 36 23q37 0 37 -23zM136 699v-344q0 -23 -37 -23q-36 0 -36 23v344q0 23 36 23q37 0 37 -23z" />
    <glyph glyph-name="section" unicode="&#xa7;" horiz-adv-x="500" 
d="M465 261q0 -50 -32 -91.5t-84 -65.5q80 -60 80 -144q0 -73 -56.5 -121t-147.5 -48q-62 0 -121 29.5t-59 67.5q0 29 22.5 35t45.5 -21q45 -53 112 -53q37 0 66.5 25t29.5 67q0 56 -81 102l-96 55q-109 62 -109 161q0 53 33 93t92 58q-78 57 -78 142q0 67 49 109t136 42
q59 0 106.5 -26.5t47.5 -60.5q0 -15 -9 -24.5t-22 -9.5q-9 0 -20 10t-22 21.5t-31 21.5t-45 10q-39 0 -61 -21.5t-22 -51.5q0 -54 64 -91l109 -66q103 -64 103 -154zM140 282q0 -10 3 -19.5t7 -17.5t12.5 -17t15 -15.5t18.5 -15t18.5 -13t20.5 -12.5t18.5 -10.5t19 -10
t16.5 -8.5q71 33 71 96q0 16 -5 30t-16 26t-20 20.5t-27 18t-26 14t-27 12.5t-21 9q-33 -7 -55.5 -31t-22.5 -56z" />
    <glyph glyph-name="dieresis" unicode="&#xa8;" horiz-adv-x="300" 
d="M289 617q0 -24 -15.5 -40t-39.5 -16q-25 0 -40.5 16t-15.5 40t15.5 39.5t40.5 15.5q24 0 39.5 -15.5t15.5 -39.5zM120 617q0 -24 -15.5 -40t-39.5 -16q-25 0 -40.5 16t-15.5 40t15.5 39.5t40.5 15.5q24 0 39.5 -15.5t15.5 -39.5z" />
    <glyph glyph-name="copyright" unicode="&#xa9;" horiz-adv-x="630" 
d="M605 279q0 -125 -85.5 -207.5t-204.5 -82.5q-120 0 -205.5 82.5t-85.5 207.5t85.5 208.5t205.5 83.5t205 -83.5t85 -208.5zM549 279q0 97 -68.5 169t-165.5 72q-98 0 -166.5 -72t-68.5 -169t68.5 -167.5t166.5 -70.5q97 0 165.5 70.5t68.5 167.5zM405 178q9 5 16.5 1.5
t7.5 -11.5t-9 -18q-13 -14 -40 -24.5t-54 -10.5q-73 0 -110.5 48t-37.5 121q0 68 38.5 115.5t106.5 47.5q38 0 69.5 -17t31.5 -33q0 -8 -6 -14.5t-14 -6.5q-11 0 -36 17t-42 17q-34 0 -54.5 -36t-20.5 -86q0 -60 21.5 -96.5t57.5 -36.5t75 23z" />
    <glyph glyph-name="ordfeminine" unicode="&#xaa;" horiz-adv-x="320" 
d="M208 437v87q-7 1 -22 1q-75 0 -75 -64q0 -61 54 -61q16 0 29.5 9.5t13.5 27.5zM211 381v8q-25 -28 -78 -28q-43 0 -70 25t-27 66q0 103 140 103q22 0 32 -1q0 29 -2.5 46t-13.5 29.5t-31 12.5q-13 0 -35 -14.5t-45 -14.5q-9 0 -15.5 6.5t-6.5 16.5q0 16 29 31t75 15
q52 0 86 -27.5t34 -88.5v-185q0 -17 -17 -17h-38q-17 0 -17 17z" />
    <glyph glyph-name="guillemotleft" unicode="&#xab;" horiz-adv-x="474" 
d="M231 385l-79 -129l79 -129q5 -8 5 -18q0 -11 -6 -17.5t-16 -6.5q-12 0 -22 11l-120 126q-18 20 -18 34t18 34l120 126q11 11 22 11q9 0 15.5 -7t6.5 -17q0 -11 -5 -18zM415 385l-79 -129l79 -129q5 -8 5 -18q0 -11 -6 -17.5t-16 -6.5q-12 0 -22 11l-120 126
q-18 20 -18 34t18 34l120 126q11 11 22 11q9 0 15.5 -7t6.5 -17q0 -11 -5 -18z" />
    <glyph glyph-name="logicalnot" unicode="&#xac;" horiz-adv-x="550" 
d="M480 256v-153q0 -25 -8.5 -33.5t-28.5 -8.5t-28.5 8.5t-8.5 33.5v116h-295q-25 0 -33.5 8.5t-8.5 28.5t8.5 28.5t33.5 8.5h327q25 0 33.5 -8.5t8.5 -28.5z" />
    <glyph glyph-name="uni00AD" unicode="&#xad;" horiz-adv-x="382" 
d="M326 256q0 -21 -7 -28.5t-24 -7.5h-208q-17 0 -24 7.5t-7 28.5t7 28.5t24 7.5h208q17 0 24 -7.5t7 -28.5z" />
    <glyph glyph-name="registered" unicode="&#xae;" horiz-adv-x="630" 
d="M586 377q0 -116 -79.5 -193.5t-191.5 -77.5t-191.5 77.5t-79.5 193.5q0 117 79.5 194.5t191.5 77.5t191.5 -78t79.5 -194zM530 377q0 91 -62 156t-153 65t-153 -65t-62 -156t62 -155t153 -64t153 64t62 155zM311 511q-19 0 -33 -3v-126h31q59 0 59 68q0 61 -57 61z
M289 357h-11v-119q0 -7 -8 -7h-42q-8 0 -8 7v275q0 8 2.5 11t13.5 6q41 9 74 9q118 0 118 -85q0 -73 -78 -91q77 -117 79 -121q8 -11 -4 -11h-47q-8 0 -12 7z" />
    <glyph glyph-name="macron" unicode="&#xaf;" horiz-adv-x="300" 
d="M266 568h-232q-12 0 -18.5 9.5t-6.5 22.5t6.5 22.5t18.5 9.5h232q12 0 18.5 -9.5t6.5 -22.5t-6.5 -22.5t-18.5 -9.5z" />
    <glyph glyph-name="degree" unicode="&#xb0;" horiz-adv-x="279" 
d="M266 575q0 -53 -38 -88.5t-90 -35.5q-55 0 -90 35t-35 89t37.5 89.5t89.5 35.5q57 0 91.5 -36t34.5 -89zM206 576q0 28 -18 49.5t-49 21.5q-28 0 -47 -21t-19 -50q0 -31 18.5 -51t47.5 -20q28 0 47.5 20.5t19.5 50.5z" />
    <glyph glyph-name="plusminus" unicode="&#xb1;" horiz-adv-x="550" 
d="M480 319q0 -20 -8.5 -28.5t-33.5 -8.5h-126v-117q0 -25 -8.5 -33.5t-28.5 -8.5t-28.5 8.5t-8.5 33.5v117h-127q-25 0 -33.5 8.5t-8.5 28.5t8.5 28.5t33.5 8.5h127v116q0 25 8.5 33.5t28.5 8.5t28.5 -8.5t8.5 -33.5v-116h126q25 0 33.5 -8.5t8.5 -28.5zM480 37
q0 -20 -8.5 -28.5t-33.5 -8.5h-327q-25 0 -33.5 8.5t-8.5 28.5t8.5 28.5t33.5 8.5h327q25 0 33.5 -8.5t8.5 -28.5z" />
    <glyph glyph-name="twosuperior" unicode="&#xb2;" horiz-adv-x="346" 
d="M149 386h138q13 0 13 -16v-38q0 -18 -13 -18h-220q-22 0 -22 17q0 11 11 24q89 96 122.5 141t33.5 83q0 64 -65 64q-34 0 -66 -26q-9 -8 -20.5 -3.5t-11.5 17.5q0 26 42.5 43.5t77.5 17.5q51 0 88 -27.5t37 -80.5q0 -34 -28 -71t-102 -112z" />
    <glyph glyph-name="threesuperior" unicode="&#xb3;" horiz-adv-x="346" 
d="M145 354q29 0 52 19.5t23 55.5q0 27 -17 48t-38 21h-46q-17 0 -17 20q0 7 4.5 13t12.5 6q83 0 83 62q0 22 -14.5 33t-36.5 11q-34 0 -62 -20q-29 -20 -39 -3q-7 13 5 26q44 46 113 46q48 0 81.5 -22.5t33.5 -61.5q0 -57 -53 -82q73 -23 73 -100q0 -50 -39.5 -84.5
t-109.5 -34.5q-38 0 -74.5 15.5t-36.5 37.5q0 11 7 16t15 4t14 -6q27 -20 66 -20z" />
    <glyph glyph-name="acute" unicode="&#xb4;" horiz-adv-x="300" 
d="M59 576l73 95q24 31 53 31q38 0 56 -20q12 -11 0 -21q-114 -92 -122 -98q-41 -32 -60 -14q-12 12 0 27z" />
    <glyph glyph-name="mu" unicode="&#xb5;" horiz-adv-x="499" 
d="M478 -11q-87 0 -120 54q-17 -22 -46.5 -38t-63.5 -16q-30 0 -63 18v-213q0 -21 -21 -21h-76q-21 0 -21 21v667q0 21 21 21h75q21 0 21 -21v-331q0 -84 74 -84q44 0 83 42v373q0 21 21 21h75q21 0 21 -21v-322q0 -96 65 -96q27 0 46 15q7 6 15 6q15 0 15 -16
q0 -21 -29 -36q-43 -23 -92 -23z" />
    <glyph glyph-name="paragraph" unicode="&#xb6;" horiz-adv-x="510" 
d="M464 565v-696q0 -17 -17 -17h-33q-17 0 -17 17v709h-107v-709q0 -17 -17 -17h-33q-17 0 -17 17v444q-78 6 -127.5 51.5t-49.5 119.5q0 159 225 159h24q106 0 137.5 -11.5t31.5 -66.5z" />
    <glyph glyph-name="periodcentered" unicode="&#xb7;" horiz-adv-x="217" 
d="M173 260q0 -26 -19 -45t-46 -19q-26 0 -45.5 19t-19.5 45t19.5 44.5t45.5 18.5q27 0 46 -18.5t19 -44.5z" />
    <glyph glyph-name="cedilla" unicode="&#xb8;" horiz-adv-x="300" 
d="M135 8q14 2 22 2q7 0 21 -2q-4 -8 -11.5 -24.5t-8.5 -19.5q7 -4 21.5 -12.5t20 -11.5t14.5 -10.5t12.5 -13t6.5 -14t3 -19.5q0 -32 -34 -57t-91 -25q-48 0 -48 21q0 8 16 12.5t35.5 6t35.5 9.5t16 24q0 13 -31.5 30t-31.5 33q0 25 32 71z" />
    <glyph glyph-name="onesuperior" unicode="&#xb9;" horiz-adv-x="346" 
d="M236 669v-341q0 -18 -17 -18h-43q-16 0 -16 18v292q-45 -19 -65 -19q-7 0 -12 6t-5 14q0 13 12 17q19 7 51.5 20.5t55 23.5t24.5 10q15 0 15 -23z" />
    <glyph glyph-name="ordmasculine" unicode="&#xba;" horiz-adv-x="320" 
d="M305 521q0 -71 -38 -116.5t-107 -45.5t-107 45.5t-38 116.5t38 116t107 45q68 0 106.5 -45t38.5 -116zM222 521q0 47 -15 85.5t-47 38.5q-33 0 -48 -37t-15 -84q0 -48 15 -87t47 -39q23 0 38 21t20 47t5 55z" />
    <glyph glyph-name="guillemotright" unicode="&#xbb;" horiz-adv-x="474" 
d="M138 256l-79 129q-5 7 -5 18q0 10 6.5 17t15.5 7q11 0 22 -11l120 -126q18 -20 18 -34t-18 -34l-120 -126q-10 -11 -22 -11q-10 0 -16 6.5t-6 17.5q0 10 5 18zM322 256l-79 129q-5 7 -5 18q0 10 6.5 17t15.5 7q11 0 22 -11l120 -126q18 -20 18 -34t-18 -34l-120 -126
q-10 -11 -22 -11q-10 0 -16 6.5t-6 17.5q0 10 5 18z" />
    <glyph glyph-name="onequarter" unicode="&#xbc;" horiz-adv-x="765" 
d="M699 97q0 -15 -8 -15h-27v-66q0 -16 -10 -16h-58q-10 0 -10 16v66h-158q-15 0 -15 22q0 9 7 21l157 238q8 10 16 10h61q10 0 10 -16v-225h27q8 0 8 -14v-21zM586 286l-95 -154h95v154zM171 -15l358 642q9 16 33 16h12q10 0 16 -5.5t2 -13.5l-358 -642q-9 -16 -33 -16h-12
q-10 0 -16.5 5.5t-1.5 13.5zM225 610v-341q0 -18 -17 -18h-43q-16 0 -16 18v292q-45 -19 -65 -19q-7 0 -12 6t-5 14q0 12 12 17q19 7 51.5 20.5t55 23.5t24.5 10q15 0 15 -23z" />
    <glyph glyph-name="onehalf" unicode="&#xbd;" horiz-adv-x="765" 
d="M548 72h138q13 0 13 -16v-38q0 -18 -13 -18h-220q-22 0 -22 17q0 11 11 24q89 96 122.5 141t33.5 83q0 64 -65 64q-34 0 -66 -26q-9 -8 -20.5 -3.5t-11.5 17.5q0 26 42.5 43.5t77.5 17.5q51 0 88 -27.5t37 -80.5q0 -34 -28 -71t-102 -112l-5 -5l-5 -5zM139 -15l358 642
q9 16 33 16h12q10 0 16 -5.5t2 -13.5l-358 -642q-9 -16 -33 -16h-12q-10 0 -16.5 5.5t-1.5 13.5zM225 610v-341q0 -18 -17 -18h-43q-16 0 -16 18v292q-45 -19 -65 -19q-7 0 -12 6t-5 14q0 12 12 17q19 7 51.5 20.5t55 23.5t24.5 10q15 0 15 -23z" />
    <glyph glyph-name="threequarters" unicode="&#xbe;" horiz-adv-x="765" 
d="M149 288q29 0 52 19.5t23 55.5q0 27 -17 48t-38 21h-46q-17 0 -17 20q0 7 4.5 13t12.5 6q83 0 83 62q0 22 -14.5 33t-36.5 11q-34 0 -62 -20q-29 -20 -39 -3q-7 13 5 26q44 46 113 46q48 0 81.5 -22.5t33.5 -61.5q0 -57 -53 -82q73 -23 73 -100q0 -50 -39.5 -84.5
t-109.5 -34.5q-38 0 -74.5 15.5t-36.5 37.5q0 11 7 16t15 4t14 -6q27 -20 66 -20zM718 97q0 -15 -8 -15h-27v-66q0 -16 -10 -16h-58q-10 0 -10 16v66h-158q-15 0 -15 22q0 9 7 21l157 238q8 10 16 10h61q10 0 10 -16v-225h27q8 0 8 -14v-21zM605 286l-95 -154h95v154z
M201 -15l358 642q9 16 33 16h12q10 0 16 -5.5t2 -13.5l-358 -642q-9 -16 -33 -16h-12q-10 0 -16.5 5.5t-1.5 13.5z" />
    <glyph glyph-name="questiondown" unicode="&#xbf;" horiz-adv-x="460" 
d="M198 306v42q0 17 17 17h57q17 0 17 -17v-42q0 -41 -21.5 -80t-47 -65t-47 -62t-21.5 -70q0 -114 94 -114q25 0 46 14t33 30.5t28 30.5t32 14t26.5 -10.5t6.5 -31t-29 -44.5q-64 -51 -157 -51q-87 0 -140 43t-53 116q0 44 24.5 80t65.5 74q41 39 55 63.5t14 62.5zM244 564
q27 0 46.5 -18.5t19.5 -44.5q0 -27 -19.5 -45.5t-46.5 -18.5t-46.5 18.5t-19.5 45.5q0 26 19.5 44.5t46.5 18.5z" />
    <glyph glyph-name="Agrave" unicode="&#xc0;" horiz-adv-x="583" 
d="M576 25q2 -6 2 -10q0 -15 -15 -15h-90q-15 0 -21.5 5.5t-11.5 19.5q-29 89 -62 190h-233l-61 -190q-5 -14 -11.5 -19.5t-21.5 -5.5h-31q-15 0 -15 15q0 8 12 41q4 12 206 594q4 12 20 15l90 14q16 3 21 -15zM163 268h197l-98 304zM355 769q13 -16 -1 -27q-19 -17 -59 14
q-8 6 -122 98q-17 14 10 29q21 12 46 12q28 0 53 -31q38 -48 73 -95z" />
    <glyph glyph-name="Aacute" unicode="&#xc1;" horiz-adv-x="583" 
d="M576 25q2 -6 2 -10q0 -15 -15 -15h-90q-15 0 -21.5 5.5t-11.5 19.5q-29 89 -62 190h-233l-61 -190q-5 -14 -11.5 -19.5t-21.5 -5.5h-31q-15 0 -15 15q0 8 12 41q4 12 206 594q4 12 20 15l90 14q16 3 21 -15zM163 268h197l-98 304zM198 769l73 95q24 31 53 31q38 0 56 -20
q12 -11 0 -21q-114 -92 -122 -98q-41 -32 -60 -14q-12 12 0 27z" />
    <glyph glyph-name="Acircumflex" unicode="&#xc2;" horiz-adv-x="583" 
d="M576 25q2 -6 2 -10q0 -15 -15 -15h-90q-15 0 -21.5 5.5t-11.5 19.5q-29 89 -62 190h-233l-61 -190q-5 -14 -11.5 -19.5t-21.5 -5.5h-31q-15 0 -15 15q0 8 12 41q4 12 206 594q4 12 20 15l90 14q16 3 21 -15zM163 268h197l-98 304zM291 807q-11 -7 -26.5 -17t-34.5 -23.5
t-30 -20.5q-24 -17 -39 -4t7 37q14 15 44 48t48 52q17 17 31 17t31 -17q18 -19 48 -52t44 -48q23 -24 7.5 -37t-39.5 4q-11 7 -30 20.5t-34.5 23.5t-26.5 17z" />
    <glyph glyph-name="Atilde" unicode="&#xc3;" horiz-adv-x="583" 
d="M576 25q2 -6 2 -10q0 -15 -15 -15h-90q-15 0 -21.5 5.5t-11.5 19.5q-29 89 -62 190h-233l-61 -190q-5 -14 -11.5 -19.5t-21.5 -5.5h-31q-15 0 -15 15q0 8 12 41q4 12 206 594q4 12 20 15l90 14q16 3 21 -15zM163 268h197l-98 304zM336 748q-28 0 -52 19l-30 24
q-19 14 -34 14q-10 0 -17.5 -5t-16.5 -18t-10 -14q-13 -16 -28 -9.5t-8 29.5q14 35 41 60.5t64 25.5q28 0 52 -19l30 -24q19 -14 34 -14q10 0 17.5 5t16.5 18t10 14q13 16 28.5 9.5t7.5 -29.5q-12 -35 -39.5 -60.5t-65.5 -25.5z" />
    <glyph glyph-name="Adieresis" unicode="&#xc4;" horiz-adv-x="583" 
d="M576 25q2 -6 2 -10q0 -15 -15 -15h-90q-15 0 -21.5 5.5t-11.5 19.5q-29 89 -62 190h-233l-61 -190q-5 -14 -11.5 -19.5t-21.5 -5.5h-31q-15 0 -15 15q0 8 12 41q4 12 206 594q4 12 20 15l90 14q16 3 21 -15zM163 268h197l-98 304zM431 810q0 -24 -15.5 -40t-39.5 -16
q-25 0 -40.5 16t-15.5 40t15.5 39.5t40.5 15.5q24 0 39.5 -15.5t15.5 -39.5zM262 810q0 -24 -15.5 -40t-39.5 -16q-25 0 -40.5 16t-15.5 40t15.5 39.5t40.5 15.5q24 0 39.5 -15.5t15.5 -39.5z" />
    <glyph glyph-name="Aring" unicode="&#xc5;" horiz-adv-x="583" 
d="M576 25q2 -6 2 -10q0 -15 -15 -15h-90q-15 0 -21.5 5.5t-11.5 19.5q-29 89 -62 190h-233l-61 -190q-5 -14 -11.5 -19.5t-21.5 -5.5h-31q-15 0 -15 15q0 8 12 41q4 12 206 594q4 12 20 15l90 14q16 3 21 -15zM163 268h197l-98 304zM291 734q-38 0 -64 25.5t-26 62.5
q0 39 26 64t64 25t64 -25t26 -64q0 -37 -26 -62.5t-64 -25.5zM291 774q20 0 33.5 13.5t13.5 34.5t-13.5 34.5t-33.5 13.5t-33.5 -13.5t-13.5 -34.5t13.5 -34.5t33.5 -13.5z" />
    <glyph glyph-name="AE" unicode="&#xc6;" horiz-adv-x="840" 
d="M761 607q-83 11 -149 11q-72 0 -132 -11l34 -230h217q17 0 17 -23v-17q0 -23 -17 -23h-207l36 -245q32 -12 98 -12q72 0 151 12h2q17 0 17 -30t-17 -33q-78 -12 -163 -12q-122 0 -166.5 12t-49.5 50q-1 4 -2.5 17.5t-7.5 54.5t-12 87h-218l-90 -190q-6 -14 -13.5 -19.5
t-22.5 -5.5h-31q-16 0 -16 14q0 6 3 12q14 28 132 268t166 336q25 52 256 52q120 0 185 -12q16 -3 16 -33t-16 -30zM360 566l-142 -298h184z" />
    <glyph glyph-name="Ccedilla" unicode="&#xc7;" horiz-adv-x="553" 
d="M335 624q-78 0 -118 -74.5t-40 -203.5q0 -138 43.5 -215.5t129.5 -77.5q21 0 40 3.5t36.5 11t27 12.5t25.5 15t18 11q17 10 29 -6.5t2 -34.5q-16 -28 -71.5 -52t-119.5 -24h-1l-11 -25q7 -4 21.5 -12.5t20 -11.5t14.5 -10.5t12.5 -13t6.5 -14t3 -19.5q0 -32 -34 -57
t-91 -25q-48 0 -48 21q0 10 26 13.5t51.5 11t25.5 27.5q0 13 -31.5 30t-31.5 33q0 22 21 55q-123 15 -184.5 106.5t-61.5 237.5q0 160 74 255t215 95q64 0 121.5 -24t73.5 -52q9 -14 0.5 -31t-30.5 -17q-13 0 -35 15.5t-56 31t-73 15.5z" />
    <glyph glyph-name="Egrave" unicode="&#xc8;" horiz-adv-x="499" 
d="M201 308v-239q30 -11 111 -11q83 0 156 11q11 1 16 -13.5t1 -31t-15 -18.5q-78 -12 -163 -12q-230 0 -230 62v564q0 62 230 62q74 0 143 -12q11 -2 15 -18.5t-1 -31.5t-16 -13q-80 12 -140 12q-66 0 -107 -12v-236h191q17 0 17 -23v-17q0 -23 -17 -23h-191zM353 769
q13 -16 -1 -27q-19 -17 -59 14q-8 6 -122 98q-17 14 10 29q21 12 46 12q28 0 53 -31q38 -48 73 -95z" />
    <glyph glyph-name="Eacute" unicode="&#xc9;" horiz-adv-x="499" 
d="M201 308v-239q30 -11 111 -11q83 0 156 11q11 1 16 -13.5t1 -31t-15 -18.5q-78 -12 -163 -12q-230 0 -230 62v564q0 62 230 62q74 0 143 -12q11 -2 15 -18.5t-1 -31.5t-16 -13q-80 12 -140 12q-66 0 -107 -12v-236h191q17 0 17 -23v-17q0 -23 -17 -23h-191zM186 769
l73 95q24 31 53 31q38 0 56 -20q12 -11 0 -21q-114 -92 -122 -98q-41 -32 -60 -14q-12 12 0 27z" />
    <glyph glyph-name="Ecircumflex" unicode="&#xca;" horiz-adv-x="499" 
d="M201 308v-239q30 -11 111 -11q83 0 156 11q11 1 16 -13.5t1 -31t-15 -18.5q-78 -12 -163 -12q-230 0 -230 62v564q0 62 230 62q74 0 143 -12q11 -2 15 -18.5t-1 -31.5t-16 -13q-80 12 -140 12q-66 0 -107 -12v-236h191q17 0 17 -23v-17q0 -23 -17 -23h-191zM269 807
q-11 -7 -26.5 -17t-34.5 -23.5t-30 -20.5q-24 -17 -39 -4t7 37q14 15 44 48t48 52q17 17 31 17t31 -17q18 -19 48 -52t44 -48q23 -24 7.5 -37t-39.5 4q-11 7 -30 20.5t-34.5 23.5t-26.5 17z" />
    <glyph glyph-name="Edieresis" unicode="&#xcb;" horiz-adv-x="499" 
d="M201 308v-239q30 -11 111 -11q83 0 156 11q11 1 16 -13.5t1 -31t-15 -18.5q-78 -12 -163 -12q-230 0 -230 62v564q0 62 230 62q74 0 143 -12q11 -2 15 -18.5t-1 -31.5t-16 -13q-80 12 -140 12q-66 0 -107 -12v-236h191q17 0 17 -23v-17q0 -23 -17 -23h-191zM419 810
q0 -24 -15.5 -40t-39.5 -16q-25 0 -40.5 16t-15.5 40t15.5 39.5t40.5 15.5q24 0 39.5 -15.5t15.5 -39.5zM250 810q0 -24 -15.5 -40t-39.5 -16q-25 0 -40.5 16t-15.5 40t15.5 39.5t40.5 15.5q24 0 39.5 -15.5t15.5 -39.5z" />
    <glyph glyph-name="Igrave" unicode="&#xcc;" horiz-adv-x="278" 
d="M201 658v-641q0 -17 -17 -17h-90q-17 0 -17 17v641q0 17 17 17h90q17 0 17 -17zM213 769q13 -16 -1 -27q-19 -17 -59 14q-8 6 -122 98q-17 14 10 29q21 12 46 12q28 0 53 -31q38 -48 73 -95z" />
    <glyph glyph-name="Iacute" unicode="&#xcd;" horiz-adv-x="278" 
d="M201 658v-641q0 -17 -17 -17h-90q-17 0 -17 17v641q0 17 17 17h90q17 0 17 -17zM66 769l73 95q24 31 53 31q38 0 56 -20q12 -11 0 -21q-114 -92 -122 -98q-41 -32 -60 -14q-12 12 0 27z" />
    <glyph glyph-name="Icircumflex" unicode="&#xce;" horiz-adv-x="278" 
d="M201 658v-641q0 -17 -17 -17h-90q-17 0 -17 17v641q0 17 17 17h90q17 0 17 -17zM139 807q-11 -7 -26.5 -17t-34.5 -23.5t-30 -20.5q-24 -17 -39 -4t7 37q14 15 44 48t48 52q17 17 31 17t31 -17q18 -19 48 -52t44 -48q23 -24 7.5 -37t-39.5 4q-11 7 -30 20.5t-34.5 23.5
t-26.5 17z" />
    <glyph glyph-name="Idieresis" unicode="&#xcf;" horiz-adv-x="278" 
d="M201 658v-641q0 -17 -17 -17h-90q-17 0 -17 17v641q0 17 17 17h90q17 0 17 -17zM279 810q0 -24 -15.5 -40t-39.5 -16q-25 0 -40.5 16t-15.5 40t15.5 39.5t40.5 15.5q24 0 39.5 -15.5t15.5 -39.5zM110 810q0 -24 -15.5 -40t-39.5 -16q-25 0 -40.5 16t-15.5 40t15.5 39.5
t40.5 15.5q24 0 39.5 -15.5t15.5 -39.5z" />
    <glyph glyph-name="Eth" unicode="&#xd0;" horiz-adv-x="630" 
d="M271 -11q-84 0 -162 20q-20 5 -26 13t-6 24v265h-49q-17 0 -17 27q0 28 17 28h49v263q0 16 5.5 23.5t26.5 13.5q80 20 151 20q325 0 325 -340q0 -357 -314 -357zM280 311h-78v-257q30 -6 70 -6q181 0 181 289q0 294 -187 294q-35 0 -64 -6v-259h78q17 0 17 -28
q0 -27 -17 -27z" />
    <glyph glyph-name="Ntilde" unicode="&#xd1;" horiz-adv-x="649" 
d="M370 748q-28 0 -52 19l-30 24q-19 14 -34 14q-10 0 -17.5 -5t-16.5 -18t-10 -14q-13 -16 -28 -9.5t-8 29.5q14 35 41 60.5t64 25.5q28 0 52 -19l30 -24q19 -14 34 -14q10 0 17.5 5t16.5 18t10 14q13 16 28.5 9.5t7.5 -29.5q-12 -35 -39.5 -60.5t-65.5 -25.5zM506 204v454
q0 17 17 17h32q17 0 17 -17v-635q0 -23 -25 -23h-34q-25 0 -36 20q-144 259 -334 472v-475q0 -17 -17 -17h-32q-17 0 -17 17v635q0 23 25 23h24q28 0 46 -20q198 -202 334 -451z" />
    <glyph glyph-name="Ograve" unicode="&#xd2;" horiz-adv-x="669" 
d="M624 337q0 -162 -77 -255t-212 -93t-212.5 94.5t-77.5 256.5q0 159 76.5 252.5t213.5 93.5q136 0 212.5 -94.5t76.5 -254.5zM492 335q0 71 -14.5 135t-52 112t-92.5 48t-92 -47.5t-50.5 -109t-13.5 -129.5q0 -72 15 -136t52.5 -111.5t91.5 -47.5q41 0 73 26.5t49 70.5
t25.5 91.5t8.5 97.5zM418 769q13 -16 -1 -27q-19 -17 -59 14q-8 6 -122 98q-17 14 10 29q21 12 46 12q28 0 53 -31q38 -48 73 -95z" />
    <glyph glyph-name="Oacute" unicode="&#xd3;" horiz-adv-x="669" 
d="M624 337q0 -162 -77 -255t-212 -93t-212.5 94.5t-77.5 256.5q0 159 76.5 252.5t213.5 93.5q136 0 212.5 -94.5t76.5 -254.5zM492 335q0 71 -14.5 135t-52 112t-92.5 48t-92 -47.5t-50.5 -109t-13.5 -129.5q0 -72 15 -136t52.5 -111.5t91.5 -47.5q41 0 73 26.5t49 70.5
t25.5 91.5t8.5 97.5zM251 769l73 95q24 31 53 31q38 0 56 -20q12 -11 0 -21q-114 -92 -122 -98q-41 -32 -60 -14q-12 12 0 27z" />
    <glyph glyph-name="Ocircumflex" unicode="&#xd4;" horiz-adv-x="669" 
d="M624 337q0 -162 -77 -255t-212 -93t-212.5 94.5t-77.5 256.5q0 159 76.5 252.5t213.5 93.5q136 0 212.5 -94.5t76.5 -254.5zM492 335q0 71 -14.5 135t-52 112t-92.5 48t-92 -47.5t-50.5 -109t-13.5 -129.5q0 -72 15 -136t52.5 -111.5t91.5 -47.5q41 0 73 26.5t49 70.5
t25.5 91.5t8.5 97.5zM334 807q-11 -7 -26.5 -17t-34.5 -23.5t-30 -20.5q-24 -17 -39 -4t7 37q14 15 44 48t48 52q17 17 31 17t31 -17q18 -19 48 -52t44 -48q23 -24 7.5 -37t-39.5 4q-11 7 -30 20.5t-34.5 23.5t-26.5 17z" />
    <glyph glyph-name="Otilde" unicode="&#xd5;" horiz-adv-x="669" 
d="M624 337q0 -162 -77 -255t-212 -93t-212.5 94.5t-77.5 256.5q0 159 76.5 252.5t213.5 93.5q136 0 212.5 -94.5t76.5 -254.5zM492 335q0 71 -14.5 135t-52 112t-92.5 48t-92 -47.5t-50.5 -109t-13.5 -129.5q0 -72 15 -136t52.5 -111.5t91.5 -47.5q41 0 73 26.5t49 70.5
t25.5 91.5t8.5 97.5zM379 748q-28 0 -52 19l-30 24q-19 14 -34 14q-10 0 -17.5 -5t-16.5 -18t-10 -14q-13 -16 -28 -9.5t-8 29.5q14 35 41 60.5t64 25.5q28 0 52 -19l30 -24q19 -14 34 -14q10 0 17.5 5t16.5 18t10 14q13 16 28.5 9.5t7.5 -29.5q-12 -35 -39.5 -60.5
t-65.5 -25.5z" />
    <glyph glyph-name="Odieresis" unicode="&#xd6;" horiz-adv-x="669" 
d="M624 337q0 -162 -77 -255t-212 -93t-212.5 94.5t-77.5 256.5q0 159 76.5 252.5t213.5 93.5q136 0 212.5 -94.5t76.5 -254.5zM492 335q0 71 -14.5 135t-52 112t-92.5 48t-92 -47.5t-50.5 -109t-13.5 -129.5q0 -72 15 -136t52.5 -111.5t91.5 -47.5q41 0 73 26.5t49 70.5
t25.5 91.5t8.5 97.5zM474 810q0 -24 -15.5 -40t-39.5 -16q-25 0 -40.5 16t-15.5 40t15.5 39.5t40.5 15.5q24 0 39.5 -15.5t15.5 -39.5zM305 810q0 -24 -15.5 -40t-39.5 -16q-25 0 -40.5 16t-15.5 40t15.5 39.5t40.5 15.5q24 0 39.5 -15.5t15.5 -39.5z" />
    <glyph glyph-name="multiply" unicode="&#xd7;" horiz-adv-x="550" 
d="M442 89q-26 -27 -56 3l-111 111l-111 -111q-17 -18 -30 -18t-25 14q-14 14 -14.5 25t17.5 31l111 111l-111 111q-18 20 -17.5 31t14.5 25q12 14 25 14t30 -18l111 -111l111 111q30 30 56 3q14 -15 14 -26.5t-18 -29.5l-110 -110l110 -110q18 -18 18 -29.5t-14 -26.5z" />
    <glyph glyph-name="Oslash" unicode="&#xd8;" horiz-adv-x="669" 
d="M488 715l-20 -59q75 -39 115.5 -122t40.5 -197q0 -162 -77 -255t-212 -93q-49 0 -89 12l-20 -61q-7 -21 -30 -12q-23 11 -16 32l20 60q-74 38 -114.5 121t-40.5 199q0 159 76.5 252.5t213.5 93.5q47 0 88 -12l21 62q7 22 30 12q22 -10 14 -33zM177 344q0 -147 54 -234
l170 501q-30 24 -68 24q-55 0 -92 -49t-50.5 -111t-13.5 -131zM492 335q0 146 -54 233l-169 -501q29 -23 67 -23q41 0 73 27.5t49 72t25.5 93t8.5 98.5z" />
    <glyph glyph-name="Ugrave" unicode="&#xd9;" horiz-adv-x="649" 
d="M578 232q0 -116 -72 -179.5t-181 -63.5t-181.5 63.5t-72.5 179.5v426q0 17 18 17h89q17 0 17 -17v-458q0 -65 41.5 -105t106.5 -40q64 0 105 40t41 105v458q0 17 18 17h54q17 0 17 -17v-426zM418 769q13 -16 -1 -27q-19 -17 -59 14q-8 6 -122 98q-17 14 10 29
q21 12 46 12q28 0 53 -31q38 -48 73 -95z" />
    <glyph glyph-name="Uacute" unicode="&#xda;" horiz-adv-x="649" 
d="M578 232q0 -116 -72 -179.5t-181 -63.5t-181.5 63.5t-72.5 179.5v426q0 17 18 17h89q17 0 17 -17v-458q0 -65 41.5 -105t106.5 -40q64 0 105 40t41 105v458q0 17 18 17h54q17 0 17 -17v-426zM244 766l73 95q24 31 53 31q38 0 56 -20q12 -11 0 -21q-114 -92 -122 -98
q-41 -32 -60 -14q-12 12 0 27z" />
    <glyph glyph-name="Ucircumflex" unicode="&#xdb;" horiz-adv-x="649" 
d="M578 232q0 -116 -72 -179.5t-181 -63.5t-181.5 63.5t-72.5 179.5v426q0 17 18 17h89q17 0 17 -17v-458q0 -65 41.5 -105t106.5 -40q64 0 105 40t41 105v458q0 17 18 17h54q17 0 17 -17v-426zM334 807q-11 -7 -26.5 -17t-34.5 -23.5t-30 -20.5q-24 -17 -39 -4t7 37
q14 15 44 48t48 52q17 17 31 17t31 -17q18 -19 48 -52t44 -48q23 -24 7.5 -37t-39.5 4q-11 7 -30 20.5t-34.5 23.5t-26.5 17z" />
    <glyph glyph-name="Udieresis" unicode="&#xdc;" horiz-adv-x="649" 
d="M578 232q0 -116 -72 -179.5t-181 -63.5t-181.5 63.5t-72.5 179.5v426q0 17 18 17h89q17 0 17 -17v-458q0 -65 41.5 -105t106.5 -40q64 0 105 40t41 105v458q0 17 18 17h54q17 0 17 -17v-426zM464 810q0 -24 -15.5 -40t-39.5 -16q-25 0 -40.5 16t-15.5 40t15.5 39.5
t40.5 15.5q24 0 39.5 -15.5t15.5 -39.5zM295 810q0 -24 -15.5 -40t-39.5 -16q-25 0 -40.5 16t-15.5 40t15.5 39.5t40.5 15.5q24 0 39.5 -15.5t15.5 -39.5z" />
    <glyph glyph-name="Yacute" unicode="&#xdd;" horiz-adv-x="537" 
d="M485 675h31q20 0 13 -18q-97 -230 -198 -384v-256q0 -17 -17 -17h-90q-17 0 -17 17v256q-125 192 -199 384q-7 18 13 18h95q17 0 21 -10q6 -12 35.5 -76t42.5 -92t38 -77t47 -86q86 145 163 331q4 10 22 10zM205 769l73 95q24 31 53 31q38 0 56 -20q12 -11 0 -21
q-114 -92 -122 -98q-41 -32 -60 -14q-12 12 0 27z" />
    <glyph glyph-name="Thorn" unicode="&#xde;" horiz-adv-x="544" 
d="M201 658v-109q46 19 107 19q92 0 152.5 -57.5t60.5 -159.5q0 -107 -59.5 -163.5t-155.5 -56.5q-63 0 -105 18v-132q0 -17 -17 -17h-90q-17 0 -17 17v641q0 17 17 17h90q17 0 17 -17zM272 504q-39 0 -71 -19v-273q30 -15 69 -15q123 0 123 152q0 79 -29.5 117t-91.5 38z
" />
    <glyph glyph-name="germandbls" unicode="&#xdf;" horiz-adv-x="576" 
d="M375 396q0 -25 18 -48.5t43.5 -43.5t51 -42t43.5 -53t18 -67q0 -72 -49 -112.5t-113 -40.5q-54 0 -94 29.5t-57 87.5q-6 22 5 35.5t28.5 8t25.5 -29.5q15 -41 39.5 -61.5t51.5 -20.5q25 0 41 17.5t16 43.5q0 27 -18 51.5t-43.5 44.5t-51 40.5t-43.5 49.5t-18 63
q0 32 25 69t50 78.5t25 82.5q0 55 -25.5 86.5t-66.5 31.5q-43 0 -68 -35.5t-25 -105.5v-534q0 -21 -25 -21h-67q-25 0 -25 21v457q0 131 52.5 197.5t166.5 66.5q75 0 128.5 -39.5t53.5 -104.5q0 -27 -14.5 -55t-32 -48.5t-32 -47t-14.5 -51.5z" />
    <glyph glyph-name="agrave" unicode="&#xe0;" horiz-adv-x="543" 
d="M346 86v199q0 160 -87 160q-35 0 -59 -33.5t-34 -78t-10 -93.5q0 -91 26 -143t70 -52q55 0 94 41zM483 -11q-83 0 -118 60q-55 -60 -146 -60q-86 0 -135 70.5t-49 170.5q0 119 62.5 191t166.5 72q110 0 154.5 -61t44.5 -173v-120q0 -96 65 -96q40 0 78 55q7 10 16 12
t15 -2t6 -11q0 -37 -48 -72.5t-112 -35.5zM335 576q13 -16 -1 -27q-19 -17 -59 14q-8 6 -122 98q-17 14 10 29q21 12 46 12q28 0 53 -31q38 -48 73 -95z" />
    <glyph glyph-name="aacute" unicode="&#xe1;" horiz-adv-x="543" 
d="M346 86v199q0 160 -87 160q-35 0 -59 -33.5t-34 -78t-10 -93.5q0 -91 26 -143t70 -52q55 0 94 41zM483 -11q-83 0 -118 60q-55 -60 -146 -60q-86 0 -135 70.5t-49 170.5q0 119 62.5 191t166.5 72q110 0 154.5 -61t44.5 -173v-120q0 -96 65 -96q40 0 78 55q7 10 16 12
t15 -2t6 -11q0 -37 -48 -72.5t-112 -35.5zM178 576l73 95q24 31 53 31q38 0 56 -20q12 -11 0 -21q-114 -92 -122 -98q-41 -32 -60 -14q-12 12 0 27z" />
    <glyph glyph-name="acircumflex" unicode="&#xe2;" horiz-adv-x="543" 
d="M346 86v199q0 160 -87 160q-35 0 -59 -33.5t-34 -78t-10 -93.5q0 -91 26 -143t70 -52q55 0 94 41zM483 -11q-83 0 -118 60q-55 -60 -146 -60q-86 0 -135 70.5t-49 170.5q0 119 62.5 191t166.5 72q110 0 154.5 -61t44.5 -173v-120q0 -96 65 -96q40 0 78 55q7 10 16 12
t15 -2t6 -11q0 -37 -48 -72.5t-112 -35.5zM261 614q-11 -7 -26.5 -17t-34.5 -23.5t-30 -20.5q-24 -17 -39 -4t7 37q14 15 44 48t48 52q17 17 31 17t31 -17q18 -19 48 -52t44 -48q23 -24 7.5 -37t-39.5 4q-11 7 -30 20.5t-34.5 23.5t-26.5 17z" />
    <glyph glyph-name="atilde" unicode="&#xe3;" horiz-adv-x="543" 
d="M346 86v199q0 160 -87 160q-35 0 -59 -33.5t-34 -78t-10 -93.5q0 -91 26 -143t70 -52q55 0 94 41zM483 -11q-83 0 -118 60q-55 -60 -146 -60q-86 0 -135 70.5t-49 170.5q0 119 62.5 191t166.5 72q110 0 154.5 -61t44.5 -173v-120q0 -96 65 -96q40 0 78 55q7 10 16 12
t15 -2t6 -11q0 -37 -48 -72.5t-112 -35.5zM306 555q-28 0 -52 19l-30 24q-19 14 -34 14q-10 0 -17.5 -5t-16.5 -18t-10 -14q-13 -16 -28 -9.5t-8 29.5q14 35 41 60.5t64 25.5q28 0 52 -19l30 -24q19 -14 34 -14q10 0 17.5 5t16.5 18t10 14q13 16 28.5 9.5t7.5 -29.5
q-12 -35 -39.5 -60.5t-65.5 -25.5z" />
    <glyph glyph-name="adieresis" unicode="&#xe4;" horiz-adv-x="543" 
d="M346 86v199q0 160 -87 160q-35 0 -59 -33.5t-34 -78t-10 -93.5q0 -91 26 -143t70 -52q55 0 94 41zM483 -11q-83 0 -118 60q-55 -60 -146 -60q-86 0 -135 70.5t-49 170.5q0 119 62.5 191t166.5 72q110 0 154.5 -61t44.5 -173v-120q0 -96 65 -96q40 0 78 55q7 10 16 12
t15 -2t6 -11q0 -37 -48 -72.5t-112 -35.5zM401 617q0 -24 -15.5 -40t-39.5 -16q-25 0 -40.5 16t-15.5 40t15.5 39.5t40.5 15.5q24 0 39.5 -15.5t15.5 -39.5zM232 617q0 -24 -15.5 -40t-39.5 -16q-25 0 -40.5 16t-15.5 40t15.5 39.5t40.5 15.5q24 0 39.5 -15.5t15.5 -39.5z
" />
    <glyph glyph-name="aring" unicode="&#xe5;" horiz-adv-x="543" 
d="M346 86v199q0 160 -87 160q-35 0 -59 -33.5t-34 -78t-10 -93.5q0 -91 26 -143t70 -52q55 0 94 41zM483 -11q-83 0 -118 60q-55 -60 -146 -60q-86 0 -135 70.5t-49 170.5q0 119 62.5 191t166.5 72q110 0 154.5 -61t44.5 -173v-120q0 -96 65 -96q40 0 78 55q7 10 16 12
t15 -2t6 -11q0 -37 -48 -72.5t-112 -35.5zM261 541q-38 0 -64 25.5t-26 62.5q0 39 26 64t64 25t64 -25t26 -64q0 -37 -26 -62.5t-64 -25.5zM261 581q20 0 33.5 13.5t13.5 34.5t-13.5 34.5t-33.5 13.5t-33.5 -13.5t-13.5 -34.5t13.5 -34.5t33.5 -13.5z" />
    <glyph glyph-name="ae" unicode="&#xe6;" horiz-adv-x="678" 
d="M418 229q5 -89 38.5 -133.5t82.5 -44.5q54 0 98 42q19 17 30.5 6t0.5 -27q-21 -35 -62 -59t-93 -24q-101 0 -159 70q-22 -30 -63.5 -50t-92.5 -20q-74 0 -118.5 36t-44.5 102q0 88 53.5 128t134.5 40q33 0 77 -7q0 79 -18 114t-68 35q-25 0 -63 -21.5t-49 -21.5
q-31 0 -31 29t37.5 49.5t112.5 20.5q102 0 148 -66q53 66 141 66q71 0 113.5 -45t42.5 -105q0 -65 -47 -102.5t-110 -37.5q-53 0 -91 26zM228 48q29 0 56.5 18t39.5 45q-22 52 -24 130q-30 5 -51 5q-41 0 -67 -24t-26 -76q0 -44 18.5 -71t53.5 -27zM488 257q40 0 60.5 26
t20.5 63t-18.5 67t-47.5 30q-25 0 -43 -20.5t-26.5 -50.5t-12.5 -54.5t-4 -42.5q30 -18 71 -18z" />
    <glyph glyph-name="ccedilla" unicode="&#xe7;" horiz-adv-x="400" 
d="M378 93q15 11 26.5 0t-1.5 -27q-63 -73 -148 -77l-11 -25q7 -4 21.5 -12.5t20 -11.5t14.5 -10.5t12.5 -13t6.5 -14t3 -19.5q0 -32 -34 -57t-91 -25q-48 0 -48 21q0 8 16 12.5t35.5 6t35.5 9.5t16 24q0 13 -31.5 30t-31.5 33q0 22 21 55q-81 13 -126.5 79t-45.5 172
q0 111 56 180.5t153 69.5q62 0 107.5 -25t45.5 -54q0 -25 -33 -25q-16 0 -50 27.5t-67 27.5q-43 0 -67 -57.5t-24 -132.5q0 -203 111 -203q53 0 108 42z" />
    <glyph glyph-name="egrave" unicode="&#xe8;" horiz-adv-x="421" 
d="M153 229q5 -89 38.5 -133.5t82.5 -44.5q54 0 98 42q19 17 30.5 6t0.5 -27q-21 -35 -62 -59t-93 -24q-100 0 -156.5 68t-56.5 187q0 112 56.5 180.5t153.5 68.5q71 0 113.5 -45t42.5 -105q0 -65 -47 -102.5t-110 -37.5q-53 0 -91 26zM223 257q40 0 60.5 26t20.5 63
t-18.5 67t-47.5 30q-25 0 -43 -20.5t-26.5 -50.5t-12.5 -54.5t-4 -42.5q30 -18 71 -18zM300 576q13 -16 -1 -27q-19 -17 -59 14q-8 6 -122 98q-17 14 10 29q21 12 46 12q28 0 53 -31q38 -48 73 -95z" />
    <glyph glyph-name="eacute" unicode="&#xe9;" horiz-adv-x="421" 
d="M153 229q5 -89 38.5 -133.5t82.5 -44.5q54 0 98 42q19 17 30.5 6t0.5 -27q-21 -35 -62 -59t-93 -24q-100 0 -156.5 68t-56.5 187q0 112 56.5 180.5t153.5 68.5q71 0 113.5 -45t42.5 -105q0 -65 -47 -102.5t-110 -37.5q-53 0 -91 26zM223 257q40 0 60.5 26t20.5 63
t-18.5 67t-47.5 30q-25 0 -43 -20.5t-26.5 -50.5t-12.5 -54.5t-4 -42.5q30 -18 71 -18zM143 576l73 95q24 31 53 31q38 0 56 -20q12 -11 0 -21q-114 -92 -122 -98q-41 -32 -60 -14q-12 12 0 27z" />
    <glyph glyph-name="ecircumflex" unicode="&#xea;" horiz-adv-x="421" 
d="M153 229q5 -89 38.5 -133.5t82.5 -44.5q54 0 98 42q19 17 30.5 6t0.5 -27q-21 -35 -62 -59t-93 -24q-100 0 -156.5 68t-56.5 187q0 112 56.5 180.5t153.5 68.5q71 0 113.5 -45t42.5 -105q0 -65 -47 -102.5t-110 -37.5q-53 0 -91 26zM223 257q40 0 60.5 26t20.5 63
t-18.5 67t-47.5 30q-25 0 -43 -20.5t-26.5 -50.5t-12.5 -54.5t-4 -42.5q30 -18 71 -18zM236 614q-11 -7 -26.5 -17t-34.5 -23.5t-30 -20.5q-24 -17 -39 -4t7 37q14 15 44 48t48 52q17 17 31 17t31 -17q18 -19 48 -52t44 -48q23 -24 7.5 -37t-39.5 4q-11 7 -30 20.5
t-34.5 23.5t-26.5 17z" />
    <glyph glyph-name="edieresis" unicode="&#xeb;" horiz-adv-x="421" 
d="M153 229q5 -89 38.5 -133.5t82.5 -44.5q54 0 98 42q19 17 30.5 6t0.5 -27q-21 -35 -62 -59t-93 -24q-100 0 -156.5 68t-56.5 187q0 112 56.5 180.5t153.5 68.5q71 0 113.5 -45t42.5 -105q0 -65 -47 -102.5t-110 -37.5q-53 0 -91 26zM223 257q40 0 60.5 26t20.5 63
t-18.5 67t-47.5 30q-25 0 -43 -20.5t-26.5 -50.5t-12.5 -54.5t-4 -42.5q30 -18 71 -18zM376 617q0 -24 -15.5 -40t-39.5 -16q-25 0 -40.5 16t-15.5 40t15.5 39.5t40.5 15.5q24 0 39.5 -15.5t15.5 -39.5zM207 617q0 -24 -15.5 -40t-39.5 -16q-25 0 -40.5 16t-15.5 40
t15.5 39.5t40.5 15.5q24 0 39.5 -15.5t15.5 -39.5z" />
    <glyph glyph-name="igrave" unicode="&#xec;" horiz-adv-x="257" 
d="M204 -11q-69 0 -103 40t-34 104v328q0 21 21 21h75q21 0 21 -21v-322q0 -96 65 -96q40 0 78 55q10 13 22 13q15 0 15 -14q0 -37 -48 -72.5t-112 -35.5zM202 576q13 -16 -1 -27q-19 -17 -59 14q-8 6 -122 98q-17 14 10 29q21 12 46 12q28 0 53 -31q38 -48 73 -95z" />
    <glyph glyph-name="iacute" unicode="&#xed;" horiz-adv-x="257" 
d="M204 -11q-69 0 -103 40t-34 104v328q0 21 21 21h75q21 0 21 -21v-322q0 -96 65 -96q40 0 78 55q10 13 22 13q15 0 15 -14q0 -37 -48 -72.5t-112 -35.5zM55 576l73 95q24 31 53 31q38 0 56 -20q12 -11 0 -21q-114 -92 -122 -98q-41 -32 -60 -14q-12 12 0 27z" />
    <glyph glyph-name="icircumflex" unicode="&#xee;" horiz-adv-x="257" 
d="M204 -11q-69 0 -103 40t-34 104v328q0 21 21 21h75q21 0 21 -21v-322q0 -96 65 -96q40 0 78 55q10 13 22 13q15 0 15 -14q0 -37 -48 -72.5t-112 -35.5zM129 614q-11 -7 -26.5 -17t-34.5 -23.5t-30 -20.5q-24 -17 -39 -4t7 37q14 15 44 48t48 52q17 17 31 17t31 -17
q18 -19 48 -52t44 -48q23 -24 7.5 -37t-39.5 4q-11 7 -30 20.5t-34.5 23.5t-26.5 17z" />
    <glyph glyph-name="idieresis" unicode="&#xef;" horiz-adv-x="257" 
d="M204 -11q-69 0 -103 40t-34 104v328q0 21 21 21h75q21 0 21 -21v-322q0 -96 65 -96q40 0 78 55q10 13 22 13q15 0 15 -14q0 -37 -48 -72.5t-112 -35.5zM269 617q0 -24 -15.5 -40t-39.5 -16q-25 0 -40.5 16t-15.5 40t15.5 39.5t40.5 15.5q24 0 39.5 -15.5t15.5 -39.5z
M100 617q0 -24 -15.5 -40t-39.5 -16q-25 0 -40.5 16t-15.5 40t15.5 39.5t40.5 15.5q24 0 39.5 -15.5t15.5 -39.5z" />
    <glyph glyph-name="eth" unicode="&#xf0;" horiz-adv-x="512" 
d="M379 683l-68 -38q0 -2 2 -2q164 -160 164 -387q0 -119 -57.5 -193t-165.5 -74q-105 0 -162 71.5t-57 182.5q0 105 52.5 177.5t146.5 72.5q46 0 84 -19q-28 85 -69 136l-75 -42q-16 -9 -25 8q-12 19 4 29l67 38q-6 6 -22 21.5t-25 24.5q-16 16 -3 28q18 16 64 -9
q29 -20 44 -33l81 46q16 9 25 -9q11 -20 -5 -29zM334 414q-33 23 -79 23q-49 0 -74 -53.5t-25 -137.5q0 -44 8.5 -87t32 -78t57.5 -35q39 0 63.5 34.5t31.5 74.5t7 86q0 85 -22 173z" />
    <glyph glyph-name="ntilde" unicode="&#xf1;" horiz-adv-x="538" 
d="M478 -11q-69 0 -103 40t-34 104v215q0 92 -65 92q-39 0 -92 -46v-373q0 -21 -21 -21h-75q-21 0 -21 21v440q0 21 21 21h75q21 0 21 -21v-20q67 52 133 52q141 0 141 -162v-192q0 -96 65 -96q40 0 78 55q7 10 16 12t15 -2t6 -11q0 -37 -48 -72.5t-112 -35.5zM314 555
q-28 0 -52 19l-30 24q-19 14 -34 14q-10 0 -17.5 -5t-16.5 -18t-10 -14q-13 -16 -28 -9.5t-8 29.5q14 35 41 60.5t64 25.5q28 0 52 -19l30 -24q19 -14 34 -14q10 0 17.5 5t16.5 18t10 14q13 16 28.5 9.5t7.5 -29.5q-12 -35 -39.5 -60.5t-65.5 -25.5z" />
    <glyph glyph-name="ograve" unicode="&#xf2;" horiz-adv-x="509" 
d="M474 242q0 -112 -56.5 -182.5t-162.5 -70.5q-107 0 -163.5 70.5t-56.5 182.5q0 111 57 181t163 70q105 0 162 -70.5t57 -180.5zM353 241q0 35 -4 68t-14 67.5t-30.5 55.5t-49.5 21t-50 -20t-31 -53.5t-14 -66t-4 -67.5q0 -36 4 -69t14 -68t31 -56t50 -21q30 0 50.5 20
t30 54.5t13.5 66.5t4 68zM338 576q13 -16 -1 -27q-19 -17 -59 14q-8 6 -122 98q-17 14 10 29q21 12 46 12q28 0 53 -31q38 -48 73 -95z" />
    <glyph glyph-name="oacute" unicode="&#xf3;" horiz-adv-x="509" 
d="M474 242q0 -112 -56.5 -182.5t-162.5 -70.5q-107 0 -163.5 70.5t-56.5 182.5q0 111 57 181t163 70q105 0 162 -70.5t57 -180.5zM353 241q0 35 -4 68t-14 67.5t-30.5 55.5t-49.5 21t-50 -20t-31 -53.5t-14 -66t-4 -67.5q0 -36 4 -69t14 -68t31 -56t50 -21q30 0 50.5 20
t30 54.5t13.5 66.5t4 68zM161 576l73 95q24 31 53 31q38 0 56 -20q12 -11 0 -21q-114 -92 -122 -98q-41 -32 -60 -14q-12 12 0 27z" />
    <glyph glyph-name="ocircumflex" unicode="&#xf4;" horiz-adv-x="509" 
d="M474 242q0 -112 -56.5 -182.5t-162.5 -70.5q-107 0 -163.5 70.5t-56.5 182.5q0 111 57 181t163 70q105 0 162 -70.5t57 -180.5zM353 241q0 35 -4 68t-14 67.5t-30.5 55.5t-49.5 21t-50 -20t-31 -53.5t-14 -66t-4 -67.5q0 -36 4 -69t14 -68t31 -56t50 -21q30 0 50.5 20
t30 54.5t13.5 66.5t4 68zM254 614q-11 -7 -26.5 -17t-34.5 -23.5t-30 -20.5q-24 -17 -39 -4t7 37q14 15 44 48t48 52q17 17 31 17t31 -17q18 -19 48 -52t44 -48q23 -24 7.5 -37t-39.5 4q-11 7 -30 20.5t-34.5 23.5t-26.5 17z" />
    <glyph glyph-name="otilde" unicode="&#xf5;" horiz-adv-x="509" 
d="M474 242q0 -112 -56.5 -182.5t-162.5 -70.5q-107 0 -163.5 70.5t-56.5 182.5q0 111 57 181t163 70q105 0 162 -70.5t57 -180.5zM353 241q0 35 -4 68t-14 67.5t-30.5 55.5t-49.5 21t-50 -20t-31 -53.5t-14 -66t-4 -67.5q0 -36 4 -69t14 -68t31 -56t50 -21q30 0 50.5 20
t30 54.5t13.5 66.5t4 68zM299 555q-28 0 -52 19l-30 24q-19 14 -34 14q-10 0 -17.5 -5t-16.5 -18t-10 -14q-13 -16 -28 -9.5t-8 29.5q14 35 41 60.5t64 25.5q28 0 52 -19l30 -24q19 -14 34 -14q10 0 17.5 5t16.5 18t10 14q13 16 28.5 9.5t7.5 -29.5q-12 -35 -39.5 -60.5
t-65.5 -25.5z" />
    <glyph glyph-name="odieresis" unicode="&#xf6;" horiz-adv-x="509" 
d="M474 242q0 -112 -56.5 -182.5t-162.5 -70.5q-107 0 -163.5 70.5t-56.5 182.5q0 111 57 181t163 70q105 0 162 -70.5t57 -180.5zM353 241q0 35 -4 68t-14 67.5t-30.5 55.5t-49.5 21t-50 -20t-31 -53.5t-14 -66t-4 -67.5q0 -36 4 -69t14 -68t31 -56t50 -21q30 0 50.5 20
t30 54.5t13.5 66.5t4 68zM394 617q0 -24 -15.5 -40t-39.5 -16q-25 0 -40.5 16t-15.5 40t15.5 39.5t40.5 15.5q24 0 39.5 -15.5t15.5 -39.5zM225 617q0 -24 -15.5 -40t-39.5 -16q-25 0 -40.5 16t-15.5 40t15.5 39.5t40.5 15.5q24 0 39.5 -15.5t15.5 -39.5z" />
    <glyph glyph-name="divide" unicode="&#xf7;" horiz-adv-x="550" 
d="M448 219h-347q-25 0 -33.5 8.5t-8.5 28.5t8.5 28.5t33.5 8.5h347q25 0 33.5 -8.5t8.5 -28.5t-8.5 -28.5t-33.5 -8.5zM333 433q0 -25 -18 -42t-43 -17q-24 0 -42 17.5t-18 41.5t18 41t42 17q25 0 43 -17t18 -41zM333 81q0 -24 -18 -41.5t-43 -17.5q-24 0 -42 17.5
t-18 41.5t18 41.5t42 17.5q25 0 43 -17t18 -42z" />
    <glyph glyph-name="oslash" unicode="&#xf8;" horiz-adv-x="509" 
d="M474 242q0 -112 -56.5 -182.5t-162.5 -70.5q-36 0 -71 10l-17 -43q-3 -9 -11.5 -12.5t-19.5 0.5q-24 10 -16 30l18 45q-103 64 -103 223q0 111 57 181t163 70q35 0 65 -9l17 43q3 9 12 12.5t19 -0.5q23 -10 15 -31l-17 -43q53 -30 80.5 -89t27.5 -134zM353 241
q0 86 -20 140l-128 -328q21 -21 50 -21q30 0 50.5 20t30 54.5t13.5 66.5t4 68zM156 246q0 -80 18 -135l127 324q-21 18 -46 18q-29 0 -50 -20t-31 -53.5t-14 -66t-4 -67.5z" />
    <glyph glyph-name="ugrave" unicode="&#xf9;" horiz-adv-x="522" 
d="M462 -11q-87 0 -120 54q-68 -54 -150 -54q-141 0 -141 162v310q0 21 21 21h75q21 0 21 -21v-327q0 -92 65 -92q39 0 92 46v373q0 21 21 21h75q21 0 21 -21v-322q0 -96 65 -96q40 0 78 55q7 10 16 12t15 -2t6 -11q0 -37 -48 -72.5t-112 -35.5zM330 576q13 -16 -1 -27
q-19 -17 -59 14q-8 6 -122 98q-17 14 10 29q21 12 46 12q28 0 53 -31q38 -48 73 -95z" />
    <glyph glyph-name="uacute" unicode="&#xfa;" horiz-adv-x="522" 
d="M462 -11q-87 0 -120 54q-68 -54 -150 -54q-141 0 -141 162v310q0 21 21 21h75q21 0 21 -21v-327q0 -92 65 -92q39 0 92 46v373q0 21 21 21h75q21 0 21 -21v-322q0 -96 65 -96q40 0 78 55q7 10 16 12t15 -2t6 -11q0 -37 -48 -72.5t-112 -35.5zM153 576l73 95q24 31 53 31
q38 0 56 -20q12 -11 0 -21q-114 -92 -122 -98q-41 -32 -60 -14q-12 12 0 27z" />
    <glyph glyph-name="ucircumflex" unicode="&#xfb;" horiz-adv-x="522" 
d="M462 -11q-87 0 -120 54q-68 -54 -150 -54q-141 0 -141 162v310q0 21 21 21h75q21 0 21 -21v-327q0 -92 65 -92q39 0 92 46v373q0 21 21 21h75q21 0 21 -21v-322q0 -96 65 -96q40 0 78 55q7 10 16 12t15 -2t6 -11q0 -37 -48 -72.5t-112 -35.5zM246 614q-11 -7 -26.5 -17
t-34.5 -23.5t-30 -20.5q-24 -17 -39 -4t7 37q14 15 44 48t48 52q17 17 31 17t31 -17q18 -19 48 -52t44 -48q23 -24 7.5 -37t-39.5 4q-11 7 -30 20.5t-34.5 23.5t-26.5 17z" />
    <glyph glyph-name="udieresis" unicode="&#xfc;" horiz-adv-x="522" 
d="M462 -11q-87 0 -120 54q-68 -54 -150 -54q-141 0 -141 162v310q0 21 21 21h75q21 0 21 -21v-327q0 -92 65 -92q39 0 92 46v373q0 21 21 21h75q21 0 21 -21v-322q0 -96 65 -96q40 0 78 55q7 10 16 12t15 -2t6 -11q0 -37 -48 -72.5t-112 -35.5zM386 617q0 -24 -15.5 -40
t-39.5 -16q-25 0 -40.5 16t-15.5 40t15.5 39.5t40.5 15.5q24 0 39.5 -15.5t15.5 -39.5zM217 617q0 -24 -15.5 -40t-39.5 -16q-25 0 -40.5 16t-15.5 40t15.5 39.5t40.5 15.5q24 0 39.5 -15.5t15.5 -39.5z" />
    <glyph glyph-name="yacute" unicode="&#xfd;" horiz-adv-x="509" 
d="M202 -11q-151 0 -151 192v280q0 21 21 21h75q21 0 21 -21v-302q0 -110 77 -110q45 0 80 43v369q0 21 21 21h75q21 0 21 -21v-390q0 -140 -59 -224.5t-166 -84.5q-53 0 -108 27t-55 62q0 16 17 16q13 0 28 -12q41 -34 88 -34q60 0 99 55.5t39 150.5v11q-54 -49 -123 -49z
M176 576l73 95q24 31 53 31q38 0 56 -20q12 -11 0 -21q-114 -92 -122 -98q-41 -32 -60 -14q-12 12 0 27z" />
    <glyph glyph-name="thorn" unicode="&#xfe;" horiz-adv-x="531" 
d="M184 22v-235q0 -21 -25 -21h-67q-25 0 -25 21v914q0 21 25 21h67q25 0 25 -21v-259q51 51 127 51q90 0 137.5 -70t47.5 -171q0 -114 -57 -188.5t-156 -74.5q-61 0 -99 33zM375 244q0 184 -96 184q-58 0 -95 -40v-308q34 -29 86 -29q49 0 77 50.5t28 142.5z" />
    <glyph glyph-name="ydieresis" unicode="&#xff;" horiz-adv-x="509" 
d="M202 -11q-151 0 -151 192v280q0 21 21 21h75q21 0 21 -21v-302q0 -110 77 -110q45 0 80 43v369q0 21 21 21h75q21 0 21 -21v-390q0 -140 -59 -224.5t-166 -84.5q-53 0 -108 27t-55 62q0 16 17 16q13 0 28 -12q41 -34 88 -34q60 0 99 55.5t39 150.5v11q-54 -49 -123 -49z
M390 617q0 -24 -15.5 -40t-39.5 -16q-25 0 -40.5 16t-15.5 40t15.5 39.5t40.5 15.5q24 0 39.5 -15.5t15.5 -39.5zM221 617q0 -24 -15.5 -40t-39.5 -16q-25 0 -40.5 16t-15.5 40t15.5 39.5t40.5 15.5q24 0 39.5 -15.5t15.5 -39.5z" />
    <glyph glyph-name="dotlessi" unicode="&#x131;" horiz-adv-x="264" 
d="M204 -11q-69 0 -103 40t-34 104v328q0 21 21 21h75q21 0 21 -21v-322q0 -96 65 -96q40 0 78 55q10 13 22 13q15 0 15 -14q0 -37 -48 -72.5t-112 -35.5z" />
    <glyph glyph-name="Lslash" unicode="&#x141;" horiz-adv-x="437" 
d="M25 315l52 26v317q0 17 17 17h90q17 0 17 -17v-254l81 42q18 9 27 -17q7 -26 -13 -36l-95 -49v-275q33 -11 91 -11q72 0 126 11q11 2 16 -13t1 -31.5t-15 -18.5q-64 -12 -133 -12q-210 0 -210 62v225l-38 -19q-18 -9 -27 17q-7 26 13 36z" />
    <glyph glyph-name="lslash" unicode="&#x142;" horiz-adv-x="261" 
d="M201 -11q-70 0 -105.5 40t-35.5 104q0 109 1 191l-19 -10q-9 -4 -19 -0.5t-15 13.5q-12 27 10 37l45 22q3 136 15 304q2 21 21 27l51 14q5 2 12 2q19 0 19 -20v-270l30 15q9 5 19 1.5t15 -13.5q11 -24 -12 -36l-52 -26v-245q0 -96 65 -96q40 0 78 55q10 13 22 13
q15 0 15 -14q0 -37 -48 -72.5t-112 -35.5z" />
    <glyph glyph-name="OE" unicode="&#x152;" horiz-adv-x="900" 
d="M612 308v-239q30 -11 111 -11q67 0 146 11q11 1 16 -13.5t1 -31t-15 -18.5q-73 -12 -153 -12q-71 0 -132.5 12t-80.5 36q-63 -53 -170 -53q-135 0 -212.5 94.5t-77.5 256.5q0 159 76.5 252.5t213.5 93.5q108 0 170 -54q19 25 80.5 37.5t132.5 12.5q69 0 133 -12
q11 -2 15 -18.5t-1 -31.5t-16 -13q-69 11 -126 11q-81 0 -111 -11v-236h181q17 0 17 -23v-17q0 -23 -17 -23h-181zM356 53q86 0 132 56v457q-47 57 -132 57q-84 0 -131.5 -79.5t-47.5 -203.5q0 -125 47.5 -206t131.5 -81z" />
    <glyph glyph-name="oe" unicode="&#x153;" horiz-adv-x="734" 
d="M474 229q5 -89 38.5 -133.5t82.5 -44.5q54 0 98 42q19 17 30.5 6t0.5 -27q-21 -35 -62 -59t-93 -24q-115 0 -163 86q-28 -46 -63 -66t-88 -20q-107 0 -163.5 70.5t-56.5 182.5q0 111 57 181t163 70q105 0 161 -87q48 87 150 87q71 0 113.5 -45t42.5 -105
q0 -65 -47 -102.5t-110 -37.5q-53 0 -91 26zM353 241q0 35 -4 68t-14 67.5t-30.5 55.5t-49.5 21t-50 -20t-31 -53.5t-14 -66t-4 -67.5q0 -36 4 -69t14 -68t31 -56t50 -21q30 0 50.5 20t30 54.5t13.5 66.5t4 68zM544 257q40 0 60.5 26t20.5 63t-18.5 67t-47.5 30
q-25 0 -43 -20.5t-26.5 -50.5t-12.5 -54.5t-4 -42.5q30 -18 71 -18z" />
    <glyph glyph-name="Scaron" unicode="&#x160;" horiz-adv-x="494" 
d="M226 51q54 0 86 27t32 77q0 67 -76 112q-16 9 -56.5 31.5t-57 33t-45 32t-40.5 40t-22.5 46.5t-10.5 61q0 75 59 125t155 50q70 0 121.5 -29t51.5 -63q0 -29 -22 -36.5t-35 9.5q-50 60 -115 60q-47 0 -71.5 -26.5t-24.5 -67.5q0 -22 10.5 -42t35.5 -39t41.5 -29.5t55 -31
t49.5 -27.5q117 -69 117 -183q0 -83 -66 -137.5t-178 -54.5q-77 0 -134.5 34t-57.5 71q0 30 23 38t37 -10q64 -71 138 -71zM247 813q11 7 26.5 17t34.5 23.5t30 20.5q24 17 39 4t-7 -37q-14 -15 -44 -48t-48 -52q-17 -17 -31 -17t-31 17q-18 19 -48 52t-44 48
q-23 24 -7.5 37t39.5 -4q11 -7 30 -20.5t34.5 -23.5t26.5 -17z" />
    <glyph glyph-name="scaron" unicode="&#x161;" horiz-adv-x="379" 
d="M339 409q0 -20 -21 -20q-13 0 -46 28t-63 28q-23 0 -38 -14t-15 -36q0 -21 14.5 -40.5t36.5 -34t47 -33.5t47 -37.5t36.5 -46.5t14.5 -61q0 -72 -50.5 -112.5t-115.5 -40.5q-55 0 -104 40.5t-49 89.5q0 14 8 22.5t19 8.5q23 0 34 -30q15 -41 39.5 -61.5t51.5 -20.5
q30 0 48.5 17t18.5 44q0 47 -71 93q-30 20 -45 31t-37 32.5t-31.5 46t-9.5 54.5q0 65 43.5 101t101.5 36q53 0 94.5 -24t41.5 -60zM199 620q11 7 26.5 17t34.5 23.5t30 20.5q24 17 39 4t-7 -37q-14 -15 -44 -48t-48 -52q-17 -17 -31 -17t-31 17q-18 19 -48 52t-44 48
q-23 24 -7.5 37t39.5 -4q11 -7 30 -20.5t34.5 -23.5t26.5 -17z" />
    <glyph glyph-name="Ydieresis" unicode="&#x178;" horiz-adv-x="537" 
d="M485 675h31q20 0 13 -18q-97 -230 -198 -384v-256q0 -17 -17 -17h-90q-17 0 -17 17v256q-125 192 -199 384q-7 18 13 18h95q17 0 21 -10q6 -12 35.5 -76t42.5 -92t38 -77t47 -86q86 145 163 331q4 10 22 10zM418 810q0 -24 -15.5 -40t-39.5 -16q-25 0 -40.5 16t-15.5 40
t15.5 39.5t40.5 15.5q24 0 39.5 -15.5t15.5 -39.5zM249 810q0 -24 -15.5 -40t-39.5 -16q-25 0 -40.5 16t-15.5 40t15.5 39.5t40.5 15.5q24 0 39.5 -15.5t15.5 -39.5z" />
    <glyph glyph-name="Zcaron" unicode="&#x17d;" horiz-adv-x="528" 
d="M519 130q-23 -76 -80.5 -108.5t-164.5 -32.5q-130 0 -206 22q-12 4 -20 8t-18 13t-8 20.5t9 30.5l314 485h-276q-16 0 -16 17v74q0 16 16 16h389q17 0 17 -16q0 -7 -5 -17l-336 -518q20 -11 65 -18.5t81 -7.5q86 0 133 18t74 64q11 19 24 9q18 -14 8 -59zM260 813
q11 7 26.5 17t34.5 23.5t30 20.5q24 17 39 4t-7 -37q-14 -15 -44 -48t-48 -52q-17 -17 -31 -17t-31 17q-18 19 -48 52t-44 48q-23 24 -7.5 37t39.5 -4q11 -7 30 -20.5t34.5 -23.5t26.5 -17z" />
    <glyph glyph-name="zcaron" unicode="&#x17e;" horiz-adv-x="394" 
d="M28 35q0 13 12 31l215 309h-187q-23 0 -23 21v65q0 21 21 21h289q26 0 26 -25q0 -9 -5 -19l-234 -339q20 -17 62 -28.5t82 -11.5q64 0 104 27q8 6 12 6q9 0 9 -14q0 -17 -8 -38q-11 -20 -17 -28.5t-21.5 -24t-39.5 -22t-58 -6.5q-137 0 -223 51q-16 10 -16 25zM197 620
q11 7 26.5 17t34.5 23.5t30 20.5q24 17 39 4t-7 -37q-14 -15 -44 -48t-48 -52q-17 -17 -31 -17t-31 17q-18 19 -48 52t-44 48q-23 24 -7.5 37t39.5 -4q11 -7 30 -20.5t34.5 -23.5t26.5 -17z" />
    <glyph glyph-name="florin" unicode="&#x192;" 
d="M377 294h-80l-35 -294q-13 -110 -60 -174t-147 -64q-55 0 -55 36q0 19 11 26t24.5 5t32 -6t25.5 -4q47 0 58 130q1 5 1 8l29 337h-47q-28 0 -28 27q0 26 28 26h52l8 87q8 89 67 141t140 52q44 0 81 -17.5t37 -48.5q0 -22 -18.5 -29.5t-29.5 4.5q-39 37 -72 37
q-68 0 -85 -136l-11 -90h74q28 0 28 -26q0 -27 -28 -27z" />
    <glyph glyph-name="circumflex" unicode="&#x2c6;" horiz-adv-x="300" 
d="M150 614q-11 -7 -26.5 -17t-34.5 -23.5t-30 -20.5q-24 -17 -39 -4t7 37q14 15 44 48t48 52q17 17 31 17t31 -17q18 -19 48 -52t44 -48q23 -24 7.5 -37t-39.5 4q-11 7 -30 20.5t-34.5 23.5t-26.5 17z" />
    <glyph glyph-name="caron" unicode="&#x2c7;" horiz-adv-x="300" 
d="M150 620q11 7 26.5 17t34.5 23.5t30 20.5q24 17 39 4t-7 -37q-14 -15 -44 -48t-48 -52q-17 -17 -31 -17t-31 17q-18 19 -48 52t-44 48q-23 24 -7.5 37t39.5 -4q11 -7 30 -20.5t34.5 -23.5t26.5 -17z" />
    <glyph glyph-name="breve" unicode="&#x2d8;" horiz-adv-x="300" 
d="M150 550q-59 0 -95 40t-32 89q2 17 19 17q14 0 20 -12q29 -70 88 -70t88 70q6 12 20 12q17 0 19 -17q4 -49 -32 -89t-95 -40z" />
    <glyph glyph-name="dotaccent" unicode="&#x2d9;" horiz-adv-x="300" 
d="M205 625q0 -24 -15.5 -40t-39.5 -16q-25 0 -40.5 16t-15.5 40t15.5 39.5t40.5 15.5q24 0 39.5 -15.5t15.5 -39.5z" />
    <glyph glyph-name="ring" unicode="&#x2da;" horiz-adv-x="300" 
d="M149 541q-38 0 -64 25.5t-26 62.5q0 39 26 64t64 25t64 -25t26 -64q0 -37 -26 -62.5t-64 -25.5zM149 581q20 0 33.5 13.5t13.5 34.5t-13.5 34.5t-33.5 13.5t-33.5 -13.5t-13.5 -34.5t13.5 -34.5t33.5 -13.5z" />
    <glyph glyph-name="ogonek" unicode="&#x2db;" horiz-adv-x="300" 
d="M131 10q14 4 22 4q19 0 32 -6q-23 -16 -44.5 -46t-21.5 -55q0 -22 18.5 -33.5t47.5 -11.5q32 0 51 7q7 3 11 -1.5t4 -11.5q0 -20 -32 -31.5t-63 -11.5q-47 0 -76 20t-29 58q0 30 26.5 65t53.5 54z" />
    <glyph glyph-name="tilde" unicode="&#x2dc;" horiz-adv-x="300" 
d="M196 555q-28 0 -52 19l-30 24q-19 14 -34 14q-10 0 -17.5 -5t-16.5 -18t-10 -14q-13 -16 -28 -9.5t-8 29.5q14 35 41 60.5t64 25.5q28 0 52 -19l30 -24q19 -14 34 -14q10 0 17.5 5t16.5 18t10 14q13 16 28.5 9.5t7.5 -29.5q-12 -35 -39.5 -60.5t-65.5 -25.5z" />
    <glyph glyph-name="hungarumlaut" unicode="&#x2dd;" horiz-adv-x="300" 
d="M143 578l61 100q15 24 54 24q49 0 46 -20q0 -5 -6 -11l-111 -112q-18 -18 -39 -13q-21 6 -5 32zM3 578l61 100q15 24 54 24q49 0 46 -20q0 -5 -6 -11l-111 -112q-18 -18 -39 -13q-21 6 -5 32z" />
    <glyph glyph-name="uni03A9" unicode="&#x3a9;" horiz-adv-x="682" 
d="M343 686q73 0 131.5 -27.5t95 -73.5t55.5 -103.5t19 -120.5q0 -86 -38.5 -165t-110.5 -129h131q16 0 16 -23v-22q0 -22 -16 -22h-245v44q68 29 106 115t38 187q0 119 -47.5 201.5t-136.5 82.5t-137 -82.5t-48 -200.5q0 -101 38.5 -187.5t106.5 -115.5v-44h-245
q-16 0 -16 22v22q0 23 16 23h130q-72 50 -110 129t-38 165q0 85 32.5 157.5t103.5 120t169 47.5z" />
    <glyph glyph-name="pi" unicode="&#x3c0;" horiz-adv-x="508" 
d="M462 422h-34v-283q0 -96 65 -96q38 0 78 55q7 10 16 12t15 -2t6 -11q0 -37 -48 -72.5t-112 -35.5q-69 0 -103 40t-34 104v289h-127v-401q0 -21 -21 -21h-75q-21 0 -21 21v401h-31q-34 0 -34 30t34 30h426q34 0 34 -30t-34 -30z" />
    <glyph glyph-name="endash" unicode="&#x2013;" horiz-adv-x="500" 
d="M465 256q0 -21 -7 -28.5t-24 -7.5h-368q-17 0 -24 7.5t-7 28.5t7 28.5t24 7.5h368q17 0 24 -7.5t7 -28.5z" />
    <glyph glyph-name="emdash" unicode="&#x2014;" horiz-adv-x="1000" 
d="M965 256q0 -21 -7 -28.5t-24 -7.5h-868q-17 0 -24 7.5t-7 28.5t7 28.5t24 7.5h868q17 0 24 -7.5t7 -28.5z" />
    <glyph glyph-name="quoteleft" unicode="&#x2018;" horiz-adv-x="217" 
d="M32 566q0 62 38.5 104.5t82.5 42.5q15 0 17.5 -14.5t-10.5 -19.5q-24 -8 -41.5 -30.5t-17.5 -42.5q0 -7 15.5 -11.5t31 -17t15.5 -38.5q0 -23 -17.5 -39.5t-41.5 -16.5q-34 0 -53 24t-19 59z" />
    <glyph glyph-name="quoteright" unicode="&#x2019;" horiz-adv-x="217" 
d="M177 630q0 -62 -38.5 -104.5t-82.5 -42.5q-15 0 -17.5 14.5t10.5 19.5q24 8 41.5 30.5t17.5 42.5q0 7 -15.5 11.5t-31 17t-15.5 38.5q0 23 17.5 39.5t41.5 16.5q34 0 53 -24t19 -59z" />
    <glyph glyph-name="quotesinglbase" unicode="&#x201a;" horiz-adv-x="217" 
d="M177 32q0 -62 -38.5 -104.5t-82.5 -42.5q-15 0 -17.5 14.5t10.5 19.5q24 8 41.5 30.5t17.5 42.5q0 7 -15.5 11.5t-31 17t-15.5 38.5q0 23 17.5 39.5t41.5 16.5q34 0 53 -24t19 -59z" />
    <glyph glyph-name="quotedblleft" unicode="&#x201c;" horiz-adv-x="392" 
d="M32 566q0 62 38.5 104.5t82.5 42.5q15 0 17.5 -14.5t-10.5 -19.5q-24 -8 -41.5 -30.5t-17.5 -42.5q0 -7 15.5 -11.5t31 -17t15.5 -38.5q0 -23 -17.5 -39.5t-41.5 -16.5q-34 0 -53 24t-19 59zM207 566q0 62 38.5 104.5t82.5 42.5q15 0 17.5 -14.5t-10.5 -19.5
q-24 -8 -41.5 -30.5t-17.5 -42.5q0 -7 15.5 -11.5t31 -17t15.5 -38.5q0 -23 -17.5 -39.5t-41.5 -16.5q-34 0 -53 24t-19 59z" />
    <glyph glyph-name="quotedblright" unicode="&#x201d;" horiz-adv-x="392" 
d="M177 630q0 -62 -38.5 -104.5t-82.5 -42.5q-15 0 -17.5 14.5t10.5 19.5q24 8 41.5 30.5t17.5 42.5q0 7 -15.5 11.5t-31 17t-15.5 38.5q0 23 17.5 39.5t41.5 16.5q34 0 53 -24t19 -59zM352 630q0 -62 -38.5 -104.5t-82.5 -42.5q-15 0 -17.5 14.5t10.5 19.5q24 8 41.5 30.5
t17.5 42.5q0 7 -15.5 11.5t-31 17t-15.5 38.5q0 23 17.5 39.5t41.5 16.5q34 0 53 -24t19 -59z" />
    <glyph glyph-name="quotedblbase" unicode="&#x201e;" horiz-adv-x="392" 
d="M177 32q0 -62 -38.5 -104.5t-82.5 -42.5q-15 0 -17.5 14.5t10.5 19.5q24 8 41.5 30.5t17.5 42.5q0 7 -15.5 11.5t-31 17t-15.5 38.5q0 23 17.5 39.5t41.5 16.5q34 0 53 -24t19 -59zM352 32q0 -62 -38.5 -104.5t-82.5 -42.5q-15 0 -17.5 14.5t10.5 19.5q24 8 41.5 30.5
t17.5 42.5q0 7 -15.5 11.5t-31 17t-15.5 38.5q0 23 17.5 39.5t41.5 16.5q34 0 53 -24t19 -59z" />
    <glyph glyph-name="dagger" unicode="&#x2020;" horiz-adv-x="420" 
d="M222 -94h-24q-17 0 -18 16q-25 239 -25 321q0 39 22 171h-152q-14 0 -14 19v21q0 18 14 18h152l-18 159q-2 16 -2 22q10 13 53 13q40 0 53 -13q0 -6 -2 -22l-18 -159h150q15 0 15 -19v-21q0 -18 -15 -18h-150q2 -11 8.5 -51.5t10 -68t3.5 -51.5q0 -82 -25 -321
q-1 -16 -18 -16z" />
    <glyph glyph-name="daggerdbl" unicode="&#x2021;" horiz-adv-x="420" 
d="M262 287q0 -18 -3.5 -39.5t-9.5 -48.5t-8 -39h152q15 0 15 -18v-21q0 -19 -15 -19h-150l18 -159q2 -14 2 -22q-11 -13 -53 -13q-43 0 -53 13q0 6 2 22l18 159h-152q-14 0 -14 18v21q0 19 14 19h151q-21 105 -21 127t21 127h-151q-14 0 -14 19v21q0 18 14 18h152l-18 159
q-2 14 -2 22q12 13 53 13q40 0 53 -13q0 -6 -2 -22l-18 -159h150q15 0 15 -19v-21q0 -18 -15 -18h-152q2 -12 8 -39t9.5 -48.5t3.5 -39.5z" />
    <glyph glyph-name="bullet" unicode="&#x2022;" horiz-adv-x="300" 
d="M255 268q0 -42 -31 -72t-74 -30q-42 0 -73.5 30t-31.5 72t31.5 72.5t73.5 30.5q44 0 74.5 -30t30.5 -73z" />
    <glyph glyph-name="ellipsis" unicode="&#x2026;" horiz-adv-x="652" 
d="M173 53q0 -26 -19 -45t-46 -19q-26 0 -45.5 19t-19.5 45t19.5 44.5t45.5 18.5q27 0 46 -18.5t19 -44.5zM391 53q0 -26 -19 -45t-46 -19q-26 0 -45.5 19t-19.5 45t19.5 44.5t45.5 18.5q27 0 46 -18.5t19 -44.5zM609 53q0 -26 -19 -45t-46 -19q-26 0 -45.5 19t-19.5 45
t19.5 44.5t45.5 18.5q27 0 46 -18.5t19 -44.5z" />
    <glyph glyph-name="perthousand" unicode="&#x2030;" horiz-adv-x="1115" 
d="M1091 186q0 -91 -41.5 -144t-114.5 -53q-74 0 -114.5 52.5t-40.5 144.5t41 145.5t114 53.5t114.5 -54t41.5 -145zM1001 187q0 152 -66 152q-35 0 -51 -43t-16 -109q0 -151 66 -151q35 0 51 43t16 108zM334 428q0 -91 -41.5 -144t-114.5 -53q-74 0 -114.5 52.5
t-40.5 144.5t41 145.5t114 53.5t114.5 -54t41.5 -145zM244 429q0 152 -66 152q-35 0 -51 -43t-16 -109q0 -151 66 -151q35 0 51 43t16 108zM741 186q0 -91 -41.5 -144t-114.5 -53q-74 0 -114.5 52.5t-40.5 144.5t41 145.5t114 53.5t114.5 -54t41.5 -145zM651 187
q0 152 -66 152q-35 0 -51 -43t-16 -109q0 -151 66 -151q35 0 51 43t16 108zM171 -15l358 642q9 16 33 16h12q10 0 16 -5.5t2 -13.5l-358 -642q-9 -16 -33 -16h-12q-10 0 -16.5 5.5t-1.5 13.5z" />
    <glyph glyph-name="guilsinglleft" unicode="&#x2039;" horiz-adv-x="290" 
d="M231 385l-79 -129l79 -129q5 -8 5 -18q0 -11 -6 -17.5t-16 -6.5q-12 0 -22 11l-120 126q-18 20 -18 34t18 34l120 126q11 11 22 11q9 0 15.5 -7t6.5 -17q0 -11 -5 -18z" />
    <glyph glyph-name="guilsinglright" unicode="&#x203a;" horiz-adv-x="290" 
d="M138 256l-79 129q-5 7 -5 18q0 10 6.5 17t15.5 7q11 0 22 -11l120 -126q18 -20 18 -34t-18 -34l-120 -126q-10 -11 -22 -11q-10 0 -16 6.5t-6 17.5q0 10 5 18z" />
    <glyph glyph-name="fraction" unicode="&#x2044;" horiz-adv-x="125" 
d="M-148 -15l358 642q9 16 33 16h12q10 0 16 -5.5t2 -13.5l-358 -642q-9 -16 -33 -16h-12q-10 0 -16.5 5.5t-1.5 13.5z" />
    <glyph glyph-name="Euro" unicode="&#x20ac;" 
d="M400 341h-209v-25q0 -26 1 -38h208q28 0 28 -26q0 -27 -28 -27h-204q24 -177 138 -177q14 0 26.5 1.5t24.5 5.5t20.5 7t19 9t15 9t14 9t10.5 7q15 8 26 -6.5t2 -30.5q-15 -26 -63.5 -48t-105.5 -22q-110 0 -173.5 62.5t-79.5 173.5h-34q-28 0 -28 27q0 26 28 26h28v29
q0 23 1 34h-29q-28 0 -28 27q0 26 28 26h34q18 108 81.5 170.5t168.5 62.5q57 0 107.5 -22t64.5 -48q8 -12 0.5 -28t-26.5 -16q-11 0 -31 14.5t-49.5 28.5t-64.5 14q-52 0 -84 -46.5t-42 -129.5h205q28 0 28 -26q0 -27 -28 -27z" />
    <glyph glyph-name="trademark" unicode="&#x2122;" horiz-adv-x="560" 
d="M152 627v-245q0 -18 -17 -18h-40q-16 0 -16 18v245h-58q-16 0 -16 20v9q0 19 16 19h188q16 0 16 -19v-9q0 -20 -16 -20h-57zM472 675h40q19 0 21 -20l21 -260q2 -31 -20 -31h-34q-19 0 -20 19l-14 189q-29 -73 -49 -174q-4 -21 -27 -21h-19q-23 0 -27 21q-20 94 -49 170
q-7 -119 -13 -185q-1 -19 -20 -19h-7q-15 0 -19 7.5t-2 23.5l22 260q1 12 6.5 16t20.5 4h31q12 0 25 -23t24.5 -58t18 -60.5t11.5 -45.5q44 187 79 187z" />
    <glyph glyph-name="partialdiff" unicode="&#x2202;" 
d="M79 633l-14 25q-3 7 3 15.5t13 12.5q73 36 145 36q118 0 193 -96t75 -254q0 -181 -78 -282t-191 -101q-95 0 -147 62t-52 148q0 112 62 176.5t145 64.5q98 0 155 -81h1q1 10 1 30q0 125 -49.5 197.5t-117.5 72.5q-67 0 -109 -24q-28 -16 -35 -2zM232 61q54 0 96 58
t51 143q-15 43 -47 77t-73 34q-52 0 -88.5 -49.5t-36.5 -122.5q0 -65 27 -102.5t71 -37.5z" />
    <glyph glyph-name="Delta" unicode="&#x2206;" horiz-adv-x="583" 
d="M20 0q-15 0 -15 15q0 8 12 41q4 12 206 594q4 12 20 15l90 14q16 3 21 -15l222 -639q2 -6 2 -10q0 -15 -15 -15h-543zM262 572l-159 -487h317z" />
    <glyph glyph-name="product" unicode="&#x220f;" horiz-adv-x="646" 
d="M219 608v-711q0 -17 -17 -17h-80q-17 0 -17 17v711h-84q-16 0 -16 23v22q0 22 16 22h604q16 0 16 -22v-22q0 -23 -16 -23h-84v-711q0 -17 -17 -17h-80q-17 0 -17 17v711h-208z" />
    <glyph glyph-name="summation" unicode="&#x2211;" horiz-adv-x="532" 
d="M380 310l-248 -321h376q16 0 16 -23v-64q0 -22 -16 -22h-499v56l262 339l-248 337v63h459q16 0 16 -22v-22q0 -23 -16 -23h-320z" />
    <glyph glyph-name="minus" unicode="&#x2212;" horiz-adv-x="550" 
d="M480 256q0 -20 -8.5 -28.5t-33.5 -8.5h-327q-25 0 -33.5 8.5t-8.5 28.5t8.5 28.5t33.5 8.5h327q25 0 33.5 -8.5t8.5 -28.5z" />
    <glyph glyph-name="radical" unicode="&#x221a;" horiz-adv-x="538" 
d="M571 795l-211 -845q-5 -22 -25.5 -30.5t-42 -0.5t-29.5 29l-166 452l-48 -19q-20 -8 -30 18q-7 18 -5.5 25.5t14.5 12.5l122 49q13 7 23.5 4t17.5 -23l134 -419l173 753q6 19 25 19h30q24 0 18 -25z" />
    <glyph glyph-name="infinity" unicode="&#x221e;" horiz-adv-x="721" 
d="M534 114q-34 0 -68.5 17.5t-54.5 35t-51 49.5q-26 -26 -39 -38t-38 -30t-50 -26t-54 -8q-64 0 -105 42t-41 108q0 61 44 105t110 44q33 0 68 -18t54 -34.5t51 -48.5q34 34 52.5 50t55 33.5t74.5 17.5q64 0 105 -42t41 -107q0 -62 -44 -106t-110 -44zM535 182
q34 0 57.5 24.5t23.5 57.5q0 35 -22 58t-56 23q-25 0 -51 -14t-40.5 -27t-40.5 -39l17 -16q51 -48 75 -59q19 -8 37 -8zM183 182q25 0 50.5 14t41 28t39.5 39l-16 15q-26 25 -36 33.5t-33 21t-43 12.5q-34 0 -57.5 -24t-23.5 -57q0 -35 22 -58.5t56 -23.5z" />
    <glyph glyph-name="integral" unicode="&#x222b;" horiz-adv-x="295" 
d="M294 774l-7 -36q-2 -7 -6 -9t-14.5 -0.5t-13.5 1.5q-28 0 -43 -21q-30 -37 -30 -156q0 -68 6 -228t6 -238q0 -131 -42 -187q-35 -49 -99 -49q-11 0 -16 0.5t-15.5 2t-15 6t-3.5 12.5q3 18 8 38q1 6 6 8t9.5 1.5t11.5 -2t11 -1.5q26 0 42 20q31 36 31 151q0 78 -6 240
t-6 232q0 138 52 196q34 37 92 37h2q44 0 40 -18z" />
    <glyph glyph-name="approxequal" unicode="&#x2248;" horiz-adv-x="550" 
d="M157 100q-40 0 -62.5 18t-22.5 51q0 23 11 23q3 0 28 -9t46 -9q40 0 120 32.5t116 32.5q39 0 62 -18.5t23 -51.5q0 -22 -11 -22q-4 0 -28.5 9t-45.5 9q-40 0 -120 -32.5t-116 -32.5zM157 290q-40 0 -62.5 18t-22.5 51q0 23 11 23q3 0 28 -9t46 -9q40 0 120 32.5t116 32.5
q39 0 62 -18.5t23 -51.5q0 -22 -11 -22q-4 0 -28.5 9t-45.5 9q-40 0 -120 -32.5t-116 -32.5z" />
    <glyph glyph-name="notequal" unicode="&#x2260;" horiz-adv-x="550" 
d="M480 152q0 -20 -8.5 -28.5t-33.5 -8.5h-220l-50 -76q-10 -17 -19.5 -19.5t-26.5 7.5q-26 16 -7 47l27 41h-31q-25 0 -33.5 8.5t-8.5 28.5t8.5 28.5t33.5 8.5h80l88 134h-168q-25 0 -33.5 8.5t-8.5 28.5t8.5 28.5t33.5 8.5h217l51 77q19 29 46 12q28 -18 9 -48l-28 -41h32
q25 0 33.5 -8.5t8.5 -28.5t-8.5 -28.5t-33.5 -8.5h-81l-89 -134h170q25 0 33.5 -8.5t8.5 -28.5z" />
    <glyph glyph-name="lessequal" unicode="&#x2264;" horiz-adv-x="550" 
d="M74 333q0 15 15 23l339 170q14 7 28 -6t16 -29t-9 -24l-279 -141q73 -36 128.5 -63.5t95 -48t55.5 -28.5q12 -8 10.5 -24t-16 -28.5t-29.5 -5.5l-339 170q-15 8 -15 23v12zM480 37q0 -20 -8.5 -28.5t-33.5 -8.5h-327q-25 0 -33.5 8.5t-8.5 28.5t8.5 28.5t33.5 8.5h327
q25 0 33.5 -8.5t8.5 -28.5z" />
    <glyph glyph-name="greaterequal" unicode="&#x2265;" horiz-adv-x="550" 
d="M486 333v-12q0 -15 -15 -23l-339 -170q-15 -7 -29.5 5.5t-16 28.5t10.5 24q16 8 55.5 28.5t95 48t128.5 63.5l-279 141q-11 8 -9 24t16 29t28 6l339 -170q15 -8 15 -23zM80 37q0 20 8.5 28.5t33.5 8.5h327q25 0 33.5 -8.5t8.5 -28.5t-8.5 -28.5t-33.5 -8.5h-327
q-25 0 -33.5 8.5t-8.5 28.5z" />
    <glyph glyph-name="lozenge" unicode="&#x25ca;" horiz-adv-x="502" 
d="M459 337q0 -8 -4 -16l-157 -299q-11 -22 -27 -22h-40q-16 0 -27 22l-157 299q-4 8 -4 16q0 9 4 17l157 300q12 21 27 21h40q15 0 27 -21l157 -300q4 -8 4 -17zM120 337l131 -261q25 50 71 141.5t60 119.5q-23 48 -68 136.5t-63 125.5z" />
    <glyph glyph-name="a.alt" horiz-adv-x="509" 
d="M228 48q58 0 84 46v142q-37 5 -63 5q-93 0 -93 -95q0 -41 19 -69.5t53 -28.5zM449 -11q-81 0 -120 57q-49 -57 -130 -57q-70 0 -117 36.5t-47 111.5q0 83 53.5 120.5t134.5 37.5q40 0 89 -7q0 79 -19 114t-69 35q-27 0 -69 -26.5t-53 -26.5q-31 0 -31 29q0 33 42.5 56.5
t127.5 23.5q107 0 147.5 -55t40.5 -154v-145q0 -96 65 -96q40 0 78 55q7 10 16 12t15 -2t6 -11q0 -37 -48 -72.5t-112 -35.5z" />
    <glyph glyph-name="g.alt" horiz-adv-x="471" 
d="M66 -96q28 -51 79.5 -76t107.5 -25q45 0 76.5 17t31.5 43q0 30 -27 48.5t-106 31.5l-38 6q-68 11 -104 43.5t-36 71.5q0 61 53 106q-61 46 -61 142q0 82 49 131.5t144 49.5q39 0 78 -11.5t56 -11.5q45 0 69 28q6 6 13 6q12 0 20.5 -9t8.5 -22q0 -27 -23.5 -40t-52.5 -13
h-5q28 -54 28 -108q0 -80 -48.5 -131t-143.5 -51q-54 0 -86 13q-16 -21 -16 -38q0 -18 24 -27.5t80 -17.5l42 -6q91 -13 138.5 -53t47.5 -98q0 -49 -36.5 -85t-88 -51.5t-109.5 -15.5q-87 0 -152.5 38t-65.5 85q0 22 8.5 34t21.5 12q14 0 23 -16zM315 311q0 30 -5.5 56.5
t-24.5 49.5t-50 23t-50 -22t-24.5 -47.5t-5.5 -55.5q0 -48 18 -88.5t62 -40.5q30 0 49.5 22.5t25 48.5t5.5 54z" />
    <glyph glyph-name="aacute.alt" horiz-adv-x="509" 
d="M228 48q58 0 84 46v142q-37 5 -63 5q-93 0 -93 -95q0 -41 19 -69.5t53 -28.5zM449 -11q-81 0 -120 57q-49 -57 -130 -57q-70 0 -117 36.5t-47 111.5q0 83 53.5 120.5t134.5 37.5q40 0 89 -7q0 79 -19 114t-69 35q-27 0 -69 -26.5t-53 -26.5q-31 0 -31 29q0 33 42.5 56.5
t127.5 23.5q107 0 147.5 -55t40.5 -154v-145q0 -96 65 -96q40 0 78 55q7 10 16 12t15 -2t6 -11q0 -37 -48 -72.5t-112 -35.5zM189 576l73 95q24 31 53 31q38 0 56 -20q12 -11 0 -21q-114 -92 -122 -98q-41 -32 -60 -14q-12 12 0 27z" />
    <glyph glyph-name="agrave.alt" horiz-adv-x="509" 
d="M228 48q58 0 84 46v142q-37 5 -63 5q-93 0 -93 -95q0 -41 19 -69.5t53 -28.5zM449 -11q-81 0 -120 57q-49 -57 -130 -57q-70 0 -117 36.5t-47 111.5q0 83 53.5 120.5t134.5 37.5q40 0 89 -7q0 79 -19 114t-69 35q-27 0 -69 -26.5t-53 -26.5q-31 0 -31 29q0 33 42.5 56.5
t127.5 23.5q107 0 147.5 -55t40.5 -154v-145q0 -96 65 -96q40 0 78 55q7 10 16 12t15 -2t6 -11q0 -37 -48 -72.5t-112 -35.5zM331 576q13 -16 -1 -27q-19 -17 -59 14q-8 6 -122 98q-17 14 10 29q21 12 46 12q28 0 53 -31q38 -48 73 -95z" />
    <glyph glyph-name="acircumflex.alt" horiz-adv-x="509" 
d="M228 48q58 0 84 46v142q-37 5 -63 5q-93 0 -93 -95q0 -41 19 -69.5t53 -28.5zM449 -11q-81 0 -120 57q-49 -57 -130 -57q-70 0 -117 36.5t-47 111.5q0 83 53.5 120.5t134.5 37.5q40 0 89 -7q0 79 -19 114t-69 35q-27 0 -69 -26.5t-53 -26.5q-31 0 -31 29q0 33 42.5 56.5
t127.5 23.5q107 0 147.5 -55t40.5 -154v-145q0 -96 65 -96q40 0 78 55q7 10 16 12t15 -2t6 -11q0 -37 -48 -72.5t-112 -35.5zM250 614q-11 -7 -26.5 -17t-34.5 -23.5t-30 -20.5q-24 -17 -39 -4t7 37q14 15 44 48t48 52q17 17 31 17t31 -17q18 -19 48 -52t44 -48
q23 -24 7.5 -37t-39.5 4q-11 7 -30 20.5t-34.5 23.5t-26.5 17z" />
    <glyph glyph-name="adieresis.alt" horiz-adv-x="509" 
d="M228 48q58 0 84 46v142q-37 5 -63 5q-93 0 -93 -95q0 -41 19 -69.5t53 -28.5zM449 -11q-81 0 -120 57q-49 -57 -130 -57q-70 0 -117 36.5t-47 111.5q0 83 53.5 120.5t134.5 37.5q40 0 89 -7q0 79 -19 114t-69 35q-27 0 -69 -26.5t-53 -26.5q-31 0 -31 29q0 33 42.5 56.5
t127.5 23.5q107 0 147.5 -55t40.5 -154v-145q0 -96 65 -96q40 0 78 55q7 10 16 12t15 -2t6 -11q0 -37 -48 -72.5t-112 -35.5zM389 617q0 -24 -15.5 -40t-39.5 -16q-25 0 -40.5 16t-15.5 40t15.5 39.5t40.5 15.5q24 0 39.5 -15.5t15.5 -39.5zM220 617q0 -24 -15.5 -40
t-39.5 -16q-25 0 -40.5 16t-15.5 40t15.5 39.5t40.5 15.5q24 0 39.5 -15.5t15.5 -39.5z" />
    <glyph glyph-name="atilde.alt" horiz-adv-x="509" 
d="M228 48q58 0 84 46v142q-37 5 -63 5q-93 0 -93 -95q0 -41 19 -69.5t53 -28.5zM449 -11q-81 0 -120 57q-49 -57 -130 -57q-70 0 -117 36.5t-47 111.5q0 83 53.5 120.5t134.5 37.5q40 0 89 -7q0 79 -19 114t-69 35q-27 0 -69 -26.5t-53 -26.5q-31 0 -31 29q0 33 42.5 56.5
t127.5 23.5q107 0 147.5 -55t40.5 -154v-145q0 -96 65 -96q40 0 78 55q7 10 16 12t15 -2t6 -11q0 -37 -48 -72.5t-112 -35.5zM296 555q-28 0 -52 19l-30 24q-19 14 -34 14q-10 0 -17.5 -5t-16.5 -18t-10 -14q-13 -16 -28 -9.5t-8 29.5q14 35 41 60.5t64 25.5q28 0 52 -19
l30 -24q19 -14 34 -14q10 0 17.5 5t16.5 18t10 14q13 16 28.5 9.5t7.5 -29.5q-12 -35 -39.5 -60.5t-65.5 -25.5z" />
    <glyph glyph-name="aring.alt" horiz-adv-x="509" 
d="M228 48q58 0 84 46v142q-37 5 -63 5q-93 0 -93 -95q0 -41 19 -69.5t53 -28.5zM449 -11q-81 0 -120 57q-49 -57 -130 -57q-70 0 -117 36.5t-47 111.5q0 83 53.5 120.5t134.5 37.5q40 0 89 -7q0 79 -19 114t-69 35q-27 0 -69 -26.5t-53 -26.5q-31 0 -31 29q0 33 42.5 56.5
t127.5 23.5q107 0 147.5 -55t40.5 -154v-145q0 -96 65 -96q40 0 78 55q7 10 16 12t15 -2t6 -11q0 -37 -48 -72.5t-112 -35.5zM249 541q-38 0 -64 25.5t-26 62.5q0 39 26 64t64 25t64 -25t26 -64q0 -37 -26 -62.5t-64 -25.5zM249 581q20 0 33.5 13.5t13.5 34.5t-13.5 34.5
t-33.5 13.5t-33.5 -13.5t-13.5 -34.5t13.5 -34.5t33.5 -13.5z" />
    <glyph glyph-name="LU1" horiz-adv-x="579" 
d="M114 637l448 38l-74 -628q-5 -40 -34.5 -64.5t-69.5 -20.5l-367 38l71 614q2 21 26 23z" />
    <glyph glyph-name="LU2" horiz-adv-x="0" 
d="M-146 465v-234q0 -37 -22.5 -59t-57.5 -22q-38 0 -60.5 22t-22.5 59v260h23q33 0 33 -26v-237q0 -13 8 -20t19 -7q24 0 24 27v263h23q33 0 33 -26zM-436 491h22q34 0 34 -26v-261h28q29 0 29 -20v-31h-113v338z" />
    </font>
</defs>
</svg>
